<svg xmlns="http://www.w3.org/2000/svg" xmlns:xlink="http://www.w3.org/1999/xlink" width="100" zoomAndPan="magnify" viewBox="0 0 75 56.249996" height="75" preserveAspectRatio="xMidYMid meet" version="1.0"><defs><g/></defs><g fill="#000000" fill-opacity="1"><g transform="translate(4.922737, 39.314859)"><g><path d="M 35.46875 -21.828125 C 35.625 -21.828125 35.707031 -21.769531 35.71875 -21.65625 C 35.738281 -21.550781 35.65625 -21.457031 35.46875 -21.375 C 34.601562 -21 33.867188 -20.519531 33.265625 -19.9375 C 32.671875 -19.351562 32.117188 -18.472656 31.609375 -17.296875 C 31.097656 -16.128906 30.539062 -14.519531 29.9375 -12.46875 C 29.34375 -10.414062 28.597656 -7.769531 27.703125 -4.53125 C 27.335938 -3.019531 26.890625 -1.894531 26.359375 -1.15625 C 25.835938 -0.414062 25.269531 -0.015625 24.65625 0.046875 C 24.007812 0.078125 23.390625 -0.179688 22.796875 -0.734375 C 22.210938 -1.296875 21.664062 -2.015625 21.15625 -2.890625 C 20.644531 -3.765625 20.171875 -4.703125 19.734375 -5.703125 C 19.304688 -6.710938 18.941406 -7.632812 18.640625 -8.46875 C 18.390625 -9.050781 18.140625 -9.316406 17.890625 -9.265625 C 17.648438 -9.222656 17.5 -9.046875 17.4375 -8.734375 C 17.28125 -8.085938 17.117188 -7.414062 16.953125 -6.71875 C 16.785156 -6.03125 16.578125 -5.300781 16.328125 -4.53125 C 15.953125 -3.019531 15.503906 -1.894531 14.984375 -1.15625 C 14.460938 -0.414062 13.894531 -0.015625 13.28125 0.046875 C 12.507812 0.078125 11.789062 -0.257812 11.125 -0.96875 C 10.457031 -1.675781 9.820312 -2.640625 9.21875 -3.859375 C 8.625 -5.078125 8.039062 -6.429688 7.46875 -7.921875 C 6.894531 -9.421875 6.332031 -10.925781 5.78125 -12.4375 C 5.226562 -13.945312 4.664062 -15.347656 4.09375 -16.640625 C 3.519531 -17.941406 2.925781 -19.023438 2.3125 -19.890625 C 1.695312 -20.753906 1.050781 -21.257812 0.375 -21.40625 C 0.1875 -21.5 0.109375 -21.597656 0.140625 -21.703125 C 0.171875 -21.816406 0.25 -21.875 0.375 -21.875 C 0.40625 -21.875 0.726562 -21.863281 1.34375 -21.84375 C 1.957031 -21.832031 2.710938 -21.828125 3.609375 -21.828125 C 4.503906 -21.828125 5.40625 -21.828125 6.3125 -21.828125 C 7.21875 -21.828125 7.976562 -21.828125 8.59375 -21.828125 C 9.21875 -21.828125 9.546875 -21.828125 9.578125 -21.828125 C 9.703125 -21.828125 9.769531 -21.769531 9.78125 -21.65625 C 9.800781 -21.550781 9.71875 -21.46875 9.53125 -21.40625 C 9.125 -21.007812 8.90625 -20.265625 8.875 -19.171875 C 8.84375 -18.078125 8.9375 -16.804688 9.15625 -15.359375 C 9.375 -13.910156 9.679688 -12.421875 10.078125 -10.890625 C 10.484375 -9.367188 10.929688 -7.953125 11.421875 -6.640625 C 11.910156 -5.328125 12.410156 -4.269531 12.921875 -3.46875 C 13.429688 -2.664062 13.90625 -2.28125 14.34375 -2.3125 C 14.675781 -2.375 14.972656 -2.6875 15.234375 -3.25 C 15.492188 -3.820312 15.734375 -4.492188 15.953125 -5.265625 C 16.171875 -6.035156 16.34375 -6.769531 16.46875 -7.46875 C 16.59375 -8.164062 16.6875 -8.664062 16.75 -8.96875 C 17.019531 -10.507812 17.1875 -12.003906 17.25 -13.453125 C 17.3125 -14.898438 17.242188 -16.21875 17.046875 -17.40625 C 16.847656 -18.59375 16.476562 -19.539062 15.9375 -20.25 C 15.394531 -20.96875 14.660156 -21.351562 13.734375 -21.40625 C 13.546875 -21.5 13.46875 -21.597656 13.5 -21.703125 C 13.53125 -21.816406 13.609375 -21.875 13.734375 -21.875 C 13.796875 -21.875 14.113281 -21.863281 14.6875 -21.84375 C 15.257812 -21.832031 15.941406 -21.828125 16.734375 -21.828125 C 17.535156 -21.828125 18.328125 -21.828125 19.109375 -21.828125 C 19.898438 -21.828125 20.566406 -21.828125 21.109375 -21.828125 C 21.648438 -21.828125 21.9375 -21.828125 21.96875 -21.828125 C 22.09375 -21.828125 22.171875 -21.769531 22.203125 -21.65625 C 22.234375 -21.550781 22.15625 -21.457031 21.96875 -21.375 C 20.820312 -20.90625 20.054688 -20.160156 19.671875 -19.140625 C 19.285156 -18.128906 19.171875 -16.972656 19.328125 -15.671875 C 19.484375 -14.378906 19.820312 -13.054688 20.34375 -11.703125 C 20.875 -10.347656 21.492188 -9.09375 22.203125 -7.9375 C 22.910156 -6.78125 23.617188 -5.816406 24.328125 -5.046875 C 25.035156 -4.273438 25.660156 -3.832031 26.203125 -3.71875 C 26.742188 -3.613281 27.101562 -3.960938 27.28125 -4.765625 C 27.75 -6.734375 28.101562 -8.6875 28.34375 -10.625 C 28.59375 -12.570312 28.671875 -14.347656 28.578125 -15.953125 C 28.484375 -17.554688 28.160156 -18.851562 27.609375 -19.84375 C 27.054688 -20.832031 26.207031 -21.351562 25.0625 -21.40625 C 24.914062 -21.5 24.847656 -21.597656 24.859375 -21.703125 C 24.867188 -21.816406 24.9375 -21.875 25.0625 -21.875 C 25.125 -21.875 25.515625 -21.863281 26.234375 -21.84375 C 26.960938 -21.832031 27.835938 -21.828125 28.859375 -21.828125 C 29.878906 -21.828125 30.890625 -21.828125 31.890625 -21.828125 C 32.890625 -21.828125 33.734375 -21.828125 34.421875 -21.828125 C 35.117188 -21.828125 35.46875 -21.828125 35.46875 -21.828125 Z M 35.46875 -21.828125 "/></g></g></g><g fill="#000000" fill-opacity="1"><g transform="translate(41.186003, 39.314859)"><g><path d="M 24.140625 -11.515625 C 24.171875 -10.867188 24.128906 -10.132812 24.015625 -9.3125 C 23.910156 -8.5 23.765625 -7.753906 23.578125 -7.078125 C 23.398438 -6.398438 23.191406 -5.941406 22.953125 -5.703125 C 22.722656 -5.472656 22.503906 -5.625 22.296875 -6.15625 C 21.984375 -6.925781 21.664062 -7.363281 21.34375 -7.46875 C 21.019531 -7.570312 20.703125 -7.488281 20.390625 -7.21875 C 19.960938 -6.8125 19.53125 -6.238281 19.09375 -5.5 C 18.664062 -4.757812 18.21875 -3.988281 17.75 -3.1875 C 17.289062 -2.382812 16.785156 -1.691406 16.234375 -1.109375 C 15.679688 -0.523438 15.050781 -0.1875 14.34375 -0.09375 C 13.75 -0.03125 12.925781 0.00390625 11.875 0.015625 C 10.832031 0.0351562 9.429688 0.0351562 7.671875 0.015625 C 5.921875 0.00390625 3.6875 0 0.96875 0 C 0.84375 0 0.785156 -0.0820312 0.796875 -0.25 C 0.816406 -0.425781 0.890625 -0.53125 1.015625 -0.5625 C 2.492188 -1.082031 3.640625 -1.957031 4.453125 -3.1875 C 5.273438 -4.425781 5.835938 -5.859375 6.140625 -7.484375 C 6.453125 -9.117188 6.609375 -10.753906 6.609375 -12.390625 C 6.640625 -13.898438 6.515625 -15.34375 6.234375 -16.71875 C 5.960938 -18.09375 5.460938 -19.222656 4.734375 -20.109375 C 4.015625 -21.003906 2.945312 -21.453125 1.53125 -21.453125 C 1.40625 -21.453125 1.34375 -21.535156 1.34375 -21.703125 C 1.34375 -21.878906 1.421875 -21.96875 1.578125 -21.96875 C 1.640625 -21.96875 2.0625 -21.96875 2.84375 -21.96875 C 3.632812 -21.96875 4.613281 -21.96875 5.78125 -21.96875 C 6.945312 -21.96875 8.101562 -21.96875 9.25 -21.96875 C 10.789062 -21.96875 12.367188 -21.941406 13.984375 -21.890625 C 15.609375 -21.847656 17.128906 -21.472656 18.546875 -20.765625 C 20.335938 -19.867188 21.691406 -18.582031 22.609375 -16.90625 C 23.535156 -15.226562 24.046875 -13.429688 24.140625 -11.515625 Z M 11.328125 -1.9375 C 12.035156 -1.289062 12.617188 -0.882812 13.078125 -0.71875 C 13.546875 -0.550781 13.9375 -0.5 14.25 -0.5625 C 15.050781 -0.707031 15.695312 -1.179688 16.1875 -1.984375 C 16.675781 -2.785156 17.0625 -3.75 17.34375 -4.875 C 17.625 -6 17.816406 -7.140625 17.921875 -8.296875 C 18.023438 -9.453125 18.078125 -10.445312 18.078125 -11.28125 C 18.046875 -12.820312 17.890625 -14.316406 17.609375 -15.765625 C 17.335938 -17.210938 16.941406 -18.414062 16.421875 -19.375 C 15.648438 -20.757812 14.671875 -21.414062 13.484375 -21.34375 C 12.296875 -21.269531 11.128906 -20.660156 9.984375 -19.515625 C 9.117188 -18.648438 8.472656 -17.59375 8.046875 -16.34375 C 7.617188 -15.09375 7.375 -13.789062 7.3125 -12.4375 C 7.28125 -10.46875 7.617188 -8.519531 8.328125 -6.59375 C 9.035156 -4.664062 10.035156 -3.113281 11.328125 -1.9375 Z M 11.328125 -1.9375 "/></g></g></g><path stroke-linecap="butt" transform="matrix(0.740131, -0.000000000000000092, 0.000000000000000092, 0.740131, 39.960545, 8.510422)" fill="none" stroke-linejoin="miter" d="M 0.000529801 0.999252 L 39.879423 0.999252 " stroke="#000000" stroke-width="2" stroke-opacity="1" stroke-miterlimit="4"/><path stroke-linecap="butt" transform="matrix(0.740131, 0, 0, 0.740131, 39.960545, 45.508114)" fill="none" stroke-linejoin="miter" d="M 0.000529801 1.00237 L 39.879423 1.00237 " stroke="#000000" stroke-width="2" stroke-opacity="1" stroke-miterlimit="4"/><path stroke-linecap="butt" transform="matrix(0, 0.740131, -0.740131, 0, 70.21243, 9.254161)" fill="none" stroke-linejoin="miter" d="M -0.000343634 0.999517 L 49.996051 0.999517 " stroke="#000000" stroke-width="2" stroke-opacity="1" stroke-miterlimit="4"/><path stroke-linecap="butt" transform="matrix(0.00290216, 0.740126, -0.740126, 0.00290216, 40.757828, 9.248923)" fill="none" stroke-linejoin="miter" d="M -0.00245668 0.997519 L 10.067612 1.00006 " stroke="#000000" stroke-width="2" stroke-opacity="1" stroke-miterlimit="4"/><path stroke-linecap="butt" transform="matrix(0.00144213, 0.74013, -0.74013, 0.00144213, 40.745611, 40.000636)" fill="none" stroke-linejoin="miter" d="M 0.00246607 1.002133 L 8.441659 0.997465 " stroke="#000000" stroke-width="2" stroke-opacity="1" stroke-miterlimit="4"/><g fill="#000000" fill-opacity="1"><g transform="translate(12.923874, 44.834158)"><g><path d="M 1.703125 -2.625 C 1.734375 -2.632812 1.765625 -2.628906 1.796875 -2.609375 C 1.796875 -2.609375 1.796875 -2.601562 1.796875 -2.59375 C 1.804688 -2.59375 1.8125 -2.59375 1.8125 -2.59375 C 1.832031 -2.539062 1.84375 -2.515625 1.84375 -2.515625 C 1.84375 -2.515625 1.84375 -2.507812 1.84375 -2.5 C 1.851562 -2.5 1.859375 -2.492188 1.859375 -2.484375 L 1.875 -2.453125 C 1.882812 -2.429688 1.898438 -2.394531 1.921875 -2.34375 C 1.929688 -2.3125 1.9375 -2.285156 1.9375 -2.265625 C 1.945312 -2.253906 1.957031 -2.242188 1.96875 -2.234375 C 1.976562 -2.210938 1.984375 -2.195312 1.984375 -2.1875 C 1.984375 -2.175781 1.976562 -2.171875 1.96875 -2.171875 C 1.96875 -2.179688 1.976562 -2.171875 2 -2.140625 C 2 -2.128906 2 -2.125 2 -2.125 C 2.007812 -2.125 2.015625 -2.125 2.015625 -2.125 C 2.015625 -2.125 2.015625 -2.117188 2.015625 -2.109375 C 2.015625 -2.097656 2.019531 -2.082031 2.03125 -2.0625 C 2.03125 -2.050781 2.035156 -2.035156 2.046875 -2.015625 C 2.046875 -2.015625 2.046875 -2.007812 2.046875 -2 C 2.054688 -1.988281 2.0625 -1.976562 2.0625 -1.96875 C 2.0625 -1.96875 2.0625 -1.960938 2.0625 -1.953125 C 2.070312 -1.953125 2.082031 -1.941406 2.09375 -1.921875 C 2.09375 -1.910156 2.09375 -1.894531 2.09375 -1.875 C 2.101562 -1.863281 2.109375 -1.851562 2.109375 -1.84375 L 2.125 -1.8125 C 2.125 -1.800781 2.128906 -1.78125 2.140625 -1.75 C 2.160156 -1.726562 2.171875 -1.707031 2.171875 -1.6875 C 2.171875 -1.675781 2.171875 -1.671875 2.171875 -1.671875 C 2.171875 -1.671875 2.175781 -1.65625 2.1875 -1.625 C 2.195312 -1.59375 2.203125 -1.566406 2.203125 -1.546875 C 2.210938 -1.535156 2.222656 -1.523438 2.234375 -1.515625 C 2.234375 -1.503906 2.234375 -1.492188 2.234375 -1.484375 C 2.242188 -1.484375 2.25 -1.476562 2.25 -1.46875 C 2.25 -1.46875 2.253906 -1.457031 2.265625 -1.4375 C 2.273438 -1.414062 2.28125 -1.398438 2.28125 -1.390625 C 2.28125 -1.390625 2.28125 -1.382812 2.28125 -1.375 C 2.28125 -1.375 2.285156 -1.375 2.296875 -1.375 C 2.304688 -1.34375 2.316406 -1.3125 2.328125 -1.28125 C 2.335938 -1.257812 2.34375 -1.238281 2.34375 -1.21875 C 2.351562 -1.207031 2.363281 -1.1875 2.375 -1.15625 C 2.382812 -1.125 2.394531 -1.085938 2.40625 -1.046875 C 2.414062 -1.035156 2.421875 -1.03125 2.421875 -1.03125 C 2.421875 -1.03125 2.421875 -1.023438 2.421875 -1.015625 C 2.421875 -1.015625 2.421875 -1.007812 2.421875 -1 C 2.429688 -0.988281 2.441406 -0.96875 2.453125 -0.9375 C 2.460938 -0.90625 2.46875 -0.882812 2.46875 -0.875 C 2.46875 -0.875 2.476562 -0.878906 2.5 -0.890625 C 2.507812 -0.910156 2.519531 -0.925781 2.53125 -0.9375 C 2.53125 -0.957031 2.535156 -0.988281 2.546875 -1.03125 C 2.566406 -1.082031 2.585938 -1.175781 2.609375 -1.3125 C 2.609375 -1.3125 2.613281 -1.335938 2.625 -1.390625 C 2.632812 -1.441406 2.644531 -1.492188 2.65625 -1.546875 C 2.664062 -1.609375 2.671875 -1.660156 2.671875 -1.703125 C 2.679688 -1.753906 2.6875 -1.78125 2.6875 -1.78125 C 2.6875 -1.78125 2.6875 -1.789062 2.6875 -1.8125 C 2.695312 -1.832031 2.703125 -1.859375 2.703125 -1.890625 C 2.710938 -1.929688 2.722656 -1.976562 2.734375 -2.03125 C 2.742188 -2.082031 2.75 -2.140625 2.75 -2.203125 C 2.757812 -2.210938 2.765625 -2.222656 2.765625 -2.234375 C 2.765625 -2.253906 2.765625 -2.273438 2.765625 -2.296875 C 2.765625 -2.328125 2.765625 -2.351562 2.765625 -2.375 C 2.773438 -2.394531 2.773438 -2.410156 2.765625 -2.421875 C 2.753906 -2.421875 2.71875 -2.421875 2.65625 -2.421875 C 2.59375 -2.410156 2.550781 -2.40625 2.53125 -2.40625 C 2.519531 -2.414062 2.507812 -2.429688 2.5 -2.453125 C 2.46875 -2.523438 2.457031 -2.570312 2.46875 -2.59375 C 2.476562 -2.613281 2.597656 -2.625 2.828125 -2.625 C 2.984375 -2.625 3.097656 -2.625 3.171875 -2.625 C 3.253906 -2.632812 3.300781 -2.632812 3.3125 -2.625 L 3.34375 -2.625 L 3.34375 -2.546875 C 3.34375 -2.492188 3.335938 -2.460938 3.328125 -2.453125 C 3.328125 -2.441406 3.3125 -2.4375 3.28125 -2.4375 C 3.25 -2.425781 3.203125 -2.421875 3.140625 -2.421875 C 3.097656 -2.421875 3.070312 -2.414062 3.0625 -2.40625 C 3.050781 -2.394531 3.039062 -2.378906 3.03125 -2.359375 C 3.019531 -2.328125 3.015625 -2.3125 3.015625 -2.3125 C 3.015625 -2.3125 3.007812 -2.300781 3 -2.28125 C 3 -2.269531 3 -2.257812 3 -2.25 C 2.988281 -2.238281 2.984375 -2.226562 2.984375 -2.21875 C 2.984375 -2.207031 2.976562 -2.191406 2.96875 -2.171875 C 2.96875 -2.160156 2.960938 -2.128906 2.953125 -2.078125 C 2.941406 -2.035156 2.929688 -1.972656 2.921875 -1.890625 C 2.898438 -1.828125 2.890625 -1.785156 2.890625 -1.765625 C 2.890625 -1.753906 2.882812 -1.734375 2.875 -1.703125 C 2.863281 -1.679688 2.851562 -1.644531 2.84375 -1.59375 C 2.84375 -1.582031 2.84375 -1.570312 2.84375 -1.5625 C 2.84375 -1.550781 2.84375 -1.539062 2.84375 -1.53125 C 2.84375 -1.519531 2.84375 -1.515625 2.84375 -1.515625 C 2.832031 -1.503906 2.828125 -1.484375 2.828125 -1.453125 C 2.828125 -1.429688 2.820312 -1.398438 2.8125 -1.359375 C 2.800781 -1.316406 2.796875 -1.289062 2.796875 -1.28125 C 2.796875 -1.269531 2.789062 -1.257812 2.78125 -1.25 C 2.78125 -1.238281 2.78125 -1.226562 2.78125 -1.21875 C 2.78125 -1.21875 2.773438 -1.210938 2.765625 -1.203125 C 2.742188 -1.097656 2.722656 -0.984375 2.703125 -0.859375 C 2.679688 -0.742188 2.664062 -0.632812 2.65625 -0.53125 C 2.625 -0.320312 2.59375 -0.1875 2.5625 -0.125 C 2.53125 -0.0625 2.488281 -0.0234375 2.4375 -0.015625 C 2.40625 -0.015625 2.382812 -0.0078125 2.375 0 C 2.363281 0 2.359375 0 2.359375 0 C 2.296875 0.0078125 2.253906 0.0078125 2.234375 0 C 2.222656 -0.0078125 2.210938 -0.0390625 2.203125 -0.09375 C 2.203125 -0.101562 2.195312 -0.113281 2.1875 -0.125 C 2.1875 -0.132812 2.1875 -0.140625 2.1875 -0.140625 C 2.1875 -0.148438 2.179688 -0.160156 2.171875 -0.171875 C 2.171875 -0.179688 2.164062 -0.191406 2.15625 -0.203125 C 2.15625 -0.222656 2.148438 -0.238281 2.140625 -0.25 C 2.140625 -0.269531 2.140625 -0.28125 2.140625 -0.28125 C 2.128906 -0.300781 2.117188 -0.332031 2.109375 -0.375 C 2.097656 -0.414062 2.082031 -0.457031 2.0625 -0.5 C 2.050781 -0.539062 2.039062 -0.578125 2.03125 -0.609375 C 2.019531 -0.648438 2.015625 -0.679688 2.015625 -0.703125 C 2.003906 -0.773438 1.988281 -0.835938 1.96875 -0.890625 C 1.957031 -0.941406 1.945312 -0.988281 1.9375 -1.03125 C 1.925781 -1.03125 1.921875 -1.035156 1.921875 -1.046875 C 1.921875 -1.054688 1.914062 -1.070312 1.90625 -1.09375 C 1.894531 -1.113281 1.890625 -1.128906 1.890625 -1.140625 C 1.890625 -1.160156 1.882812 -1.171875 1.875 -1.171875 C 1.875 -1.179688 1.867188 -1.191406 1.859375 -1.203125 C 1.859375 -1.210938 1.859375 -1.226562 1.859375 -1.25 C 1.847656 -1.257812 1.84375 -1.265625 1.84375 -1.265625 C 1.84375 -1.273438 1.84375 -1.28125 1.84375 -1.28125 L 1.8125 -1.375 C 1.8125 -1.382812 1.800781 -1.410156 1.78125 -1.453125 C 1.769531 -1.492188 1.757812 -1.535156 1.75 -1.578125 C 1.738281 -1.617188 1.722656 -1.660156 1.703125 -1.703125 C 1.691406 -1.742188 1.679688 -1.765625 1.671875 -1.765625 C 1.660156 -1.773438 1.65625 -1.78125 1.65625 -1.78125 C 1.65625 -1.789062 1.648438 -1.796875 1.640625 -1.796875 C 1.628906 -1.796875 1.617188 -1.789062 1.609375 -1.78125 C 1.585938 -1.757812 1.578125 -1.738281 1.578125 -1.71875 C 1.578125 -1.707031 1.578125 -1.695312 1.578125 -1.6875 C 1.554688 -1.65625 1.539062 -1.613281 1.53125 -1.5625 L 1.53125 -1.546875 C 1.53125 -1.546875 1.523438 -1.535156 1.515625 -1.515625 C 1.503906 -1.492188 1.5 -1.484375 1.5 -1.484375 C 1.5 -1.484375 1.5 -1.476562 1.5 -1.46875 C 1.5 -1.457031 1.492188 -1.445312 1.484375 -1.4375 C 1.492188 -1.4375 1.492188 -1.425781 1.484375 -1.40625 C 1.472656 -1.40625 1.46875 -1.398438 1.46875 -1.390625 C 1.46875 -1.390625 1.46875 -1.378906 1.46875 -1.359375 C 1.457031 -1.347656 1.453125 -1.332031 1.453125 -1.3125 C 1.441406 -1.3125 1.4375 -1.304688 1.4375 -1.296875 C 1.445312 -1.285156 1.445312 -1.273438 1.4375 -1.265625 C 1.4375 -1.253906 1.429688 -1.242188 1.421875 -1.234375 C 1.421875 -1.222656 1.421875 -1.210938 1.421875 -1.203125 C 1.421875 -1.203125 1.421875 -1.195312 1.421875 -1.1875 C 1.410156 -1.175781 1.398438 -1.160156 1.390625 -1.140625 C 1.390625 -1.140625 1.382812 -1.128906 1.375 -1.109375 C 1.375 -1.085938 1.367188 -1.066406 1.359375 -1.046875 C 1.359375 -1.023438 1.351562 -1.003906 1.34375 -0.984375 C 1.34375 -0.960938 1.34375 -0.953125 1.34375 -0.953125 C 1.320312 -0.921875 1.300781 -0.878906 1.28125 -0.828125 C 1.269531 -0.785156 1.253906 -0.722656 1.234375 -0.640625 C 1.222656 -0.578125 1.207031 -0.515625 1.1875 -0.453125 C 1.175781 -0.390625 1.160156 -0.328125 1.140625 -0.265625 C 1.128906 -0.253906 1.117188 -0.238281 1.109375 -0.21875 C 1.109375 -0.195312 1.109375 -0.1875 1.109375 -0.1875 C 1.097656 -0.164062 1.09375 -0.148438 1.09375 -0.140625 C 1.09375 -0.140625 1.085938 -0.128906 1.078125 -0.109375 C 1.066406 -0.078125 1.039062 -0.046875 1 -0.015625 C 0.976562 -0.00390625 0.953125 0 0.921875 0 C 0.898438 0.0078125 0.878906 0.015625 0.859375 0.015625 C 0.816406 0.015625 0.785156 0.00390625 0.765625 -0.015625 C 0.722656 -0.078125 0.691406 -0.175781 0.671875 -0.3125 C 0.660156 -0.332031 0.65625 -0.347656 0.65625 -0.359375 C 0.65625 -0.378906 0.648438 -0.394531 0.640625 -0.40625 C 0.640625 -0.425781 0.632812 -0.445312 0.625 -0.46875 C 0.625 -0.5 0.617188 -0.535156 0.609375 -0.578125 C 0.609375 -0.585938 0.601562 -0.601562 0.59375 -0.625 C 0.59375 -0.65625 0.585938 -0.679688 0.578125 -0.703125 C 0.578125 -0.722656 0.570312 -0.742188 0.5625 -0.765625 C 0.5625 -0.785156 0.5625 -0.800781 0.5625 -0.8125 C 0.5625 -0.832031 0.5625 -0.851562 0.5625 -0.875 C 0.5625 -0.894531 0.554688 -0.914062 0.546875 -0.9375 C 0.546875 -0.976562 0.535156 -1.023438 0.515625 -1.078125 C 0.503906 -1.140625 0.492188 -1.21875 0.484375 -1.3125 C 0.453125 -1.457031 0.425781 -1.582031 0.40625 -1.6875 C 0.394531 -1.789062 0.382812 -1.867188 0.375 -1.921875 C 0.351562 -2.171875 0.320312 -2.320312 0.28125 -2.375 C 0.257812 -2.40625 0.207031 -2.421875 0.125 -2.421875 C 0.0703125 -2.421875 0.0351562 -2.425781 0.015625 -2.4375 C 0.00390625 -2.445312 -0.00390625 -2.484375 -0.015625 -2.546875 C -0.0234375 -2.578125 -0.03125 -2.597656 -0.03125 -2.609375 C -0.0195312 -2.609375 0.109375 -2.613281 0.359375 -2.625 C 0.472656 -2.625 0.566406 -2.625 0.640625 -2.625 C 0.710938 -2.625 0.765625 -2.625 0.796875 -2.625 C 0.835938 -2.625 0.882812 -2.625 0.9375 -2.625 C 0.988281 -2.625 1.015625 -2.625 1.015625 -2.625 C 1.023438 -2.625 1.03125 -2.597656 1.03125 -2.546875 C 1.019531 -2.492188 1.007812 -2.460938 1 -2.453125 C 1 -2.441406 1 -2.4375 1 -2.4375 C 0.988281 -2.4375 0.953125 -2.4375 0.890625 -2.4375 L 0.796875 -2.421875 L 0.796875 -2.40625 C 0.796875 -2.394531 0.796875 -2.378906 0.796875 -2.359375 C 0.796875 -2.347656 0.796875 -2.328125 0.796875 -2.296875 C 0.796875 -2.273438 0.796875 -2.253906 0.796875 -2.234375 C 0.796875 -2.210938 0.796875 -2.191406 0.796875 -2.171875 C 0.804688 -2.109375 0.816406 -2.039062 0.828125 -1.96875 C 0.835938 -1.90625 0.847656 -1.835938 0.859375 -1.765625 C 0.859375 -1.753906 0.859375 -1.742188 0.859375 -1.734375 C 0.867188 -1.734375 0.875 -1.710938 0.875 -1.671875 C 0.882812 -1.648438 0.890625 -1.625 0.890625 -1.59375 C 0.890625 -1.570312 0.894531 -1.546875 0.90625 -1.515625 C 0.90625 -1.492188 0.90625 -1.472656 0.90625 -1.453125 C 0.914062 -1.441406 0.921875 -1.425781 0.921875 -1.40625 C 0.921875 -1.394531 0.921875 -1.378906 0.921875 -1.359375 C 0.929688 -1.347656 0.9375 -1.34375 0.9375 -1.34375 L 0.9375 -1.296875 C 0.945312 -1.285156 0.953125 -1.269531 0.953125 -1.25 C 0.960938 -1.226562 0.96875 -1.210938 0.96875 -1.203125 C 0.96875 -1.203125 0.96875 -1.191406 0.96875 -1.171875 C 0.96875 -1.148438 0.972656 -1.128906 0.984375 -1.109375 C 0.984375 -1.085938 0.984375 -1.070312 0.984375 -1.0625 C 0.984375 -1.050781 0.984375 -1.046875 0.984375 -1.046875 C 0.992188 -1.015625 1.003906 -0.984375 1.015625 -0.953125 C 1.023438 -0.929688 1.035156 -0.921875 1.046875 -0.921875 C 1.054688 -0.910156 1.070312 -0.914062 1.09375 -0.9375 C 1.113281 -0.957031 1.128906 -0.976562 1.140625 -1 C 1.148438 -1.019531 1.160156 -1.050781 1.171875 -1.09375 C 1.191406 -1.144531 1.210938 -1.21875 1.234375 -1.3125 C 1.242188 -1.332031 1.25 -1.351562 1.25 -1.375 C 1.257812 -1.40625 1.269531 -1.4375 1.28125 -1.46875 C 1.320312 -1.582031 1.351562 -1.679688 1.375 -1.765625 C 1.40625 -1.847656 1.425781 -1.914062 1.4375 -1.96875 C 1.5 -2.144531 1.546875 -2.28125 1.578125 -2.375 C 1.609375 -2.46875 1.628906 -2.53125 1.640625 -2.5625 C 1.660156 -2.59375 1.679688 -2.613281 1.703125 -2.625 Z M 1.703125 -2.625 "/></g></g></g><g fill="#000000" fill-opacity="1"><g transform="translate(16.243232, 44.834158)"><g><path d="M 0.46875 -2.625 C 0.519531 -2.632812 0.570312 -2.617188 0.625 -2.578125 C 0.675781 -2.546875 0.71875 -2.5 0.75 -2.4375 C 0.769531 -2.40625 0.78125 -2.351562 0.78125 -2.28125 C 0.789062 -2.21875 0.789062 -2.1875 0.78125 -2.1875 C 0.769531 -2.175781 0.757812 -2.164062 0.75 -2.15625 C 0.75 -2.144531 0.75 -2.132812 0.75 -2.125 C 0.75 -2.125 0.738281 -2.109375 0.71875 -2.078125 C 0.695312 -2.054688 0.679688 -2.039062 0.671875 -2.03125 C 0.660156 -2.03125 0.65625 -2.023438 0.65625 -2.015625 C 0.632812 -2.003906 0.601562 -1.992188 0.5625 -1.984375 C 0.46875 -1.972656 0.394531 -2.023438 0.34375 -2.140625 C 0.320312 -2.171875 0.304688 -2.207031 0.296875 -2.25 C 0.285156 -2.300781 0.28125 -2.347656 0.28125 -2.390625 C 0.28125 -2.429688 0.285156 -2.46875 0.296875 -2.5 C 0.304688 -2.507812 0.316406 -2.519531 0.328125 -2.53125 C 0.335938 -2.539062 0.347656 -2.550781 0.359375 -2.5625 C 0.378906 -2.582031 0.394531 -2.597656 0.40625 -2.609375 C 0.425781 -2.617188 0.445312 -2.625 0.46875 -2.625 Z M 0.265625 -1.765625 C 0.273438 -1.773438 0.296875 -1.773438 0.328125 -1.765625 C 0.367188 -1.765625 0.460938 -1.726562 0.609375 -1.65625 C 0.640625 -1.632812 0.671875 -1.613281 0.703125 -1.59375 C 0.742188 -1.582031 0.765625 -1.578125 0.765625 -1.578125 C 0.796875 -1.566406 0.816406 -1.550781 0.828125 -1.53125 C 0.835938 -1.519531 0.84375 -1.507812 0.84375 -1.5 C 0.84375 -1.5 0.835938 -1.488281 0.828125 -1.46875 C 0.828125 -1.457031 0.820312 -1.441406 0.8125 -1.421875 C 0.800781 -1.410156 0.789062 -1.394531 0.78125 -1.375 C 0.78125 -1.351562 0.773438 -1.335938 0.765625 -1.328125 C 0.753906 -1.265625 0.742188 -1.191406 0.734375 -1.109375 C 0.734375 -1.078125 0.734375 -1.023438 0.734375 -0.953125 C 0.734375 -0.878906 0.734375 -0.785156 0.734375 -0.671875 C 0.734375 -0.535156 0.734375 -0.425781 0.734375 -0.34375 C 0.742188 -0.257812 0.753906 -0.210938 0.765625 -0.203125 C 0.765625 -0.179688 0.796875 -0.160156 0.859375 -0.140625 C 0.953125 -0.109375 1 -0.0820312 1 -0.0625 C 1 -0.0390625 0.988281 -0.0195312 0.96875 0 C 0.945312 0.0078125 0.925781 0.0195312 0.90625 0.03125 C 0.875 0.0390625 0.835938 0.0390625 0.796875 0.03125 C 0.753906 0.0195312 0.710938 0.0078125 0.671875 0 C 0.628906 0 0.585938 0 0.546875 0 C 0.453125 -0.0078125 0.335938 0 0.203125 0.03125 C 0.148438 0.03125 0.117188 0.03125 0.109375 0.03125 C 0.0976562 0.03125 0.0859375 0.0195312 0.078125 0 C 0.0664062 -0.0195312 0.0546875 -0.0351562 0.046875 -0.046875 C 0.046875 -0.0546875 0.046875 -0.0664062 0.046875 -0.078125 C 0.046875 -0.109375 0.0859375 -0.132812 0.171875 -0.15625 C 0.203125 -0.164062 0.226562 -0.175781 0.25 -0.1875 C 0.269531 -0.195312 0.285156 -0.207031 0.296875 -0.21875 C 0.304688 -0.226562 0.3125 -0.238281 0.3125 -0.25 C 0.320312 -0.269531 0.328125 -0.300781 0.328125 -0.34375 C 0.335938 -0.375 0.34375 -0.476562 0.34375 -0.65625 C 0.351562 -1.050781 0.347656 -1.28125 0.328125 -1.34375 C 0.316406 -1.394531 0.300781 -1.425781 0.28125 -1.4375 C 0.269531 -1.457031 0.238281 -1.472656 0.1875 -1.484375 C 0.164062 -1.492188 0.144531 -1.5 0.125 -1.5 C 0.113281 -1.507812 0.109375 -1.519531 0.109375 -1.53125 C 0.0976562 -1.550781 0.0976562 -1.570312 0.109375 -1.59375 C 0.117188 -1.601562 0.128906 -1.613281 0.140625 -1.625 C 0.148438 -1.644531 0.164062 -1.664062 0.1875 -1.6875 C 0.207031 -1.707031 0.222656 -1.722656 0.234375 -1.734375 C 0.253906 -1.753906 0.265625 -1.765625 0.265625 -1.765625 Z M 0.265625 -1.765625 "/></g></g></g><g fill="#000000" fill-opacity="1"><g transform="translate(17.287815, 44.834158)"><g><path d="M 0.28125 -2.671875 C 0.289062 -2.671875 0.3125 -2.671875 0.34375 -2.671875 C 0.425781 -2.660156 0.550781 -2.617188 0.71875 -2.546875 C 0.8125 -2.492188 0.859375 -2.460938 0.859375 -2.453125 C 0.867188 -2.429688 0.863281 -2.394531 0.84375 -2.34375 C 0.820312 -2.289062 0.804688 -2.234375 0.796875 -2.171875 C 0.785156 -2.109375 0.78125 -2.039062 0.78125 -1.96875 C 0.769531 -1.882812 0.769531 -1.585938 0.78125 -1.078125 C 0.78125 -0.816406 0.78125 -0.617188 0.78125 -0.484375 C 0.78125 -0.359375 0.78125 -0.285156 0.78125 -0.265625 C 0.789062 -0.234375 0.816406 -0.207031 0.859375 -0.1875 C 0.992188 -0.15625 1.070312 -0.132812 1.09375 -0.125 C 1.09375 -0.113281 1.09375 -0.0976562 1.09375 -0.078125 C 1.101562 -0.0664062 1.101562 -0.0546875 1.09375 -0.046875 C 1.0625 -0.015625 1.023438 0.0078125 0.984375 0.03125 C 0.972656 0.03125 0.960938 0.03125 0.953125 0.03125 C 0.941406 0.03125 0.925781 0.0234375 0.90625 0.015625 C 0.875 0.015625 0.84375 0.0078125 0.8125 0 C 0.78125 0 0.742188 0 0.703125 0 C 0.640625 0 0.570312 0 0.5 0 C 0.4375 0.0078125 0.363281 0.0234375 0.28125 0.046875 C 0.1875 0.0546875 0.128906 0.0625 0.109375 0.0625 C 0.0976562 0.0507812 0.09375 0.0234375 0.09375 -0.015625 C 0.09375 -0.0351562 0.0976562 -0.0507812 0.109375 -0.0625 C 0.117188 -0.0703125 0.144531 -0.0859375 0.1875 -0.109375 C 0.207031 -0.117188 0.226562 -0.128906 0.25 -0.140625 C 0.269531 -0.160156 0.285156 -0.175781 0.296875 -0.1875 C 0.328125 -0.21875 0.347656 -0.242188 0.359375 -0.265625 C 0.367188 -0.285156 0.375 -0.316406 0.375 -0.359375 C 0.382812 -0.421875 0.390625 -0.484375 0.390625 -0.546875 C 0.398438 -0.609375 0.40625 -0.679688 0.40625 -0.765625 C 0.40625 -1.109375 0.398438 -1.394531 0.390625 -1.625 C 0.378906 -1.65625 0.375 -1.691406 0.375 -1.734375 C 0.375 -1.773438 0.375 -1.828125 0.375 -1.890625 C 0.375 -2.066406 0.367188 -2.175781 0.359375 -2.21875 C 0.347656 -2.28125 0.332031 -2.328125 0.3125 -2.359375 C 0.300781 -2.378906 0.28125 -2.398438 0.25 -2.421875 C 0.226562 -2.441406 0.207031 -2.457031 0.1875 -2.46875 C 0.132812 -2.488281 0.117188 -2.515625 0.140625 -2.546875 C 0.148438 -2.546875 0.160156 -2.550781 0.171875 -2.5625 C 0.179688 -2.582031 0.191406 -2.597656 0.203125 -2.609375 C 0.222656 -2.617188 0.238281 -2.628906 0.25 -2.640625 C 0.269531 -2.660156 0.28125 -2.671875 0.28125 -2.671875 Z M 0.28125 -2.671875 "/></g></g></g><g fill="#000000" fill-opacity="1"><g transform="translate(18.444626, 44.834158)"><g><path d="M 0.28125 -2.671875 C 0.289062 -2.671875 0.3125 -2.671875 0.34375 -2.671875 C 0.425781 -2.660156 0.550781 -2.617188 0.71875 -2.546875 C 0.8125 -2.492188 0.859375 -2.460938 0.859375 -2.453125 C 0.867188 -2.429688 0.863281 -2.394531 0.84375 -2.34375 C 0.820312 -2.289062 0.804688 -2.234375 0.796875 -2.171875 C 0.785156 -2.109375 0.78125 -2.039062 0.78125 -1.96875 C 0.769531 -1.882812 0.769531 -1.585938 0.78125 -1.078125 C 0.78125 -0.816406 0.78125 -0.617188 0.78125 -0.484375 C 0.78125 -0.359375 0.78125 -0.285156 0.78125 -0.265625 C 0.789062 -0.234375 0.816406 -0.207031 0.859375 -0.1875 C 0.992188 -0.15625 1.070312 -0.132812 1.09375 -0.125 C 1.09375 -0.113281 1.09375 -0.0976562 1.09375 -0.078125 C 1.101562 -0.0664062 1.101562 -0.0546875 1.09375 -0.046875 C 1.0625 -0.015625 1.023438 0.0078125 0.984375 0.03125 C 0.972656 0.03125 0.960938 0.03125 0.953125 0.03125 C 0.941406 0.03125 0.925781 0.0234375 0.90625 0.015625 C 0.875 0.015625 0.84375 0.0078125 0.8125 0 C 0.78125 0 0.742188 0 0.703125 0 C 0.640625 0 0.570312 0 0.5 0 C 0.4375 0.0078125 0.363281 0.0234375 0.28125 0.046875 C 0.1875 0.0546875 0.128906 0.0625 0.109375 0.0625 C 0.0976562 0.0507812 0.09375 0.0234375 0.09375 -0.015625 C 0.09375 -0.0351562 0.0976562 -0.0507812 0.109375 -0.0625 C 0.117188 -0.0703125 0.144531 -0.0859375 0.1875 -0.109375 C 0.207031 -0.117188 0.226562 -0.128906 0.25 -0.140625 C 0.269531 -0.160156 0.285156 -0.175781 0.296875 -0.1875 C 0.328125 -0.21875 0.347656 -0.242188 0.359375 -0.265625 C 0.367188 -0.285156 0.375 -0.316406 0.375 -0.359375 C 0.382812 -0.421875 0.390625 -0.484375 0.390625 -0.546875 C 0.398438 -0.609375 0.40625 -0.679688 0.40625 -0.765625 C 0.40625 -1.109375 0.398438 -1.394531 0.390625 -1.625 C 0.378906 -1.65625 0.375 -1.691406 0.375 -1.734375 C 0.375 -1.773438 0.375 -1.828125 0.375 -1.890625 C 0.375 -2.066406 0.367188 -2.175781 0.359375 -2.21875 C 0.347656 -2.28125 0.332031 -2.328125 0.3125 -2.359375 C 0.300781 -2.378906 0.28125 -2.398438 0.25 -2.421875 C 0.226562 -2.441406 0.207031 -2.457031 0.1875 -2.46875 C 0.132812 -2.488281 0.117188 -2.515625 0.140625 -2.546875 C 0.148438 -2.546875 0.160156 -2.550781 0.171875 -2.5625 C 0.179688 -2.582031 0.191406 -2.597656 0.203125 -2.609375 C 0.222656 -2.617188 0.238281 -2.628906 0.25 -2.640625 C 0.269531 -2.660156 0.28125 -2.671875 0.28125 -2.671875 Z M 0.28125 -2.671875 "/></g></g></g><g fill="#000000" fill-opacity="1"><g transform="translate(19.601438, 44.834158)"><g><path d="M 0.46875 -2.625 C 0.519531 -2.632812 0.570312 -2.617188 0.625 -2.578125 C 0.675781 -2.546875 0.71875 -2.5 0.75 -2.4375 C 0.769531 -2.40625 0.78125 -2.351562 0.78125 -2.28125 C 0.789062 -2.21875 0.789062 -2.1875 0.78125 -2.1875 C 0.769531 -2.175781 0.757812 -2.164062 0.75 -2.15625 C 0.75 -2.144531 0.75 -2.132812 0.75 -2.125 C 0.75 -2.125 0.738281 -2.109375 0.71875 -2.078125 C 0.695312 -2.054688 0.679688 -2.039062 0.671875 -2.03125 C 0.660156 -2.03125 0.65625 -2.023438 0.65625 -2.015625 C 0.632812 -2.003906 0.601562 -1.992188 0.5625 -1.984375 C 0.46875 -1.972656 0.394531 -2.023438 0.34375 -2.140625 C 0.320312 -2.171875 0.304688 -2.207031 0.296875 -2.25 C 0.285156 -2.300781 0.28125 -2.347656 0.28125 -2.390625 C 0.28125 -2.429688 0.285156 -2.46875 0.296875 -2.5 C 0.304688 -2.507812 0.316406 -2.519531 0.328125 -2.53125 C 0.335938 -2.539062 0.347656 -2.550781 0.359375 -2.5625 C 0.378906 -2.582031 0.394531 -2.597656 0.40625 -2.609375 C 0.425781 -2.617188 0.445312 -2.625 0.46875 -2.625 Z M 0.265625 -1.765625 C 0.273438 -1.773438 0.296875 -1.773438 0.328125 -1.765625 C 0.367188 -1.765625 0.460938 -1.726562 0.609375 -1.65625 C 0.640625 -1.632812 0.671875 -1.613281 0.703125 -1.59375 C 0.742188 -1.582031 0.765625 -1.578125 0.765625 -1.578125 C 0.796875 -1.566406 0.816406 -1.550781 0.828125 -1.53125 C 0.835938 -1.519531 0.84375 -1.507812 0.84375 -1.5 C 0.84375 -1.5 0.835938 -1.488281 0.828125 -1.46875 C 0.828125 -1.457031 0.820312 -1.441406 0.8125 -1.421875 C 0.800781 -1.410156 0.789062 -1.394531 0.78125 -1.375 C 0.78125 -1.351562 0.773438 -1.335938 0.765625 -1.328125 C 0.753906 -1.265625 0.742188 -1.191406 0.734375 -1.109375 C 0.734375 -1.078125 0.734375 -1.023438 0.734375 -0.953125 C 0.734375 -0.878906 0.734375 -0.785156 0.734375 -0.671875 C 0.734375 -0.535156 0.734375 -0.425781 0.734375 -0.34375 C 0.742188 -0.257812 0.753906 -0.210938 0.765625 -0.203125 C 0.765625 -0.179688 0.796875 -0.160156 0.859375 -0.140625 C 0.953125 -0.109375 1 -0.0820312 1 -0.0625 C 1 -0.0390625 0.988281 -0.0195312 0.96875 0 C 0.945312 0.0078125 0.925781 0.0195312 0.90625 0.03125 C 0.875 0.0390625 0.835938 0.0390625 0.796875 0.03125 C 0.753906 0.0195312 0.710938 0.0078125 0.671875 0 C 0.628906 0 0.585938 0 0.546875 0 C 0.453125 -0.0078125 0.335938 0 0.203125 0.03125 C 0.148438 0.03125 0.117188 0.03125 0.109375 0.03125 C 0.0976562 0.03125 0.0859375 0.0195312 0.078125 0 C 0.0664062 -0.0195312 0.0546875 -0.0351562 0.046875 -0.046875 C 0.046875 -0.0546875 0.046875 -0.0664062 0.046875 -0.078125 C 0.046875 -0.109375 0.0859375 -0.132812 0.171875 -0.15625 C 0.203125 -0.164062 0.226562 -0.175781 0.25 -0.1875 C 0.269531 -0.195312 0.285156 -0.207031 0.296875 -0.21875 C 0.304688 -0.226562 0.3125 -0.238281 0.3125 -0.25 C 0.320312 -0.269531 0.328125 -0.300781 0.328125 -0.34375 C 0.335938 -0.375 0.34375 -0.476562 0.34375 -0.65625 C 0.351562 -1.050781 0.347656 -1.28125 0.328125 -1.34375 C 0.316406 -1.394531 0.300781 -1.425781 0.28125 -1.4375 C 0.269531 -1.457031 0.238281 -1.472656 0.1875 -1.484375 C 0.164062 -1.492188 0.144531 -1.5 0.125 -1.5 C 0.113281 -1.507812 0.109375 -1.519531 0.109375 -1.53125 C 0.0976562 -1.550781 0.0976562 -1.570312 0.109375 -1.59375 C 0.117188 -1.601562 0.128906 -1.613281 0.140625 -1.625 C 0.148438 -1.644531 0.164062 -1.664062 0.1875 -1.6875 C 0.207031 -1.707031 0.222656 -1.722656 0.234375 -1.734375 C 0.253906 -1.753906 0.265625 -1.765625 0.265625 -1.765625 Z M 0.265625 -1.765625 "/></g></g></g><g fill="#000000" fill-opacity="1"><g transform="translate(20.646021, 44.834158)"><g><path d="M 0.796875 -1.75 C 0.828125 -1.75 0.851562 -1.75 0.875 -1.75 C 1.03125 -1.726562 1.148438 -1.664062 1.234375 -1.5625 C 1.296875 -1.476562 1.332031 -1.398438 1.34375 -1.328125 C 1.351562 -1.285156 1.359375 -1.210938 1.359375 -1.109375 C 1.359375 -1.003906 1.359375 -0.867188 1.359375 -0.703125 C 1.359375 -0.460938 1.363281 -0.335938 1.375 -0.328125 C 1.382812 -0.285156 1.398438 -0.257812 1.421875 -0.25 C 1.441406 -0.238281 1.484375 -0.226562 1.546875 -0.21875 C 1.609375 -0.21875 1.640625 -0.207031 1.640625 -0.1875 C 1.640625 -0.164062 1.625 -0.144531 1.59375 -0.125 C 1.5625 -0.101562 1.523438 -0.078125 1.484375 -0.046875 C 1.441406 -0.0234375 1.394531 -0.00390625 1.34375 0.015625 C 1.195312 0.078125 1.082031 0.078125 1 0.015625 C 0.988281 0.00390625 0.976562 -0.0078125 0.96875 -0.03125 C 0.96875 -0.0625 0.96875 -0.0976562 0.96875 -0.140625 L 0.953125 -0.25 L 0.859375 -0.15625 C 0.828125 -0.125 0.796875 -0.0976562 0.765625 -0.078125 C 0.742188 -0.0546875 0.726562 -0.0390625 0.71875 -0.03125 C 0.664062 0 0.613281 0.0195312 0.5625 0.03125 C 0.519531 0.03125 0.460938 0.0195312 0.390625 0 C 0.328125 -0.0195312 0.273438 -0.0507812 0.234375 -0.09375 C 0.160156 -0.15625 0.117188 -0.25 0.109375 -0.375 C 0.0859375 -0.488281 0.0976562 -0.585938 0.140625 -0.671875 C 0.179688 -0.742188 0.238281 -0.8125 0.3125 -0.875 C 0.34375 -0.894531 0.375 -0.910156 0.40625 -0.921875 C 0.4375 -0.941406 0.472656 -0.960938 0.515625 -0.984375 C 0.648438 -1.035156 0.78125 -1.066406 0.90625 -1.078125 L 0.9375 -1.078125 L 0.9375 -1.109375 C 0.9375 -1.179688 0.921875 -1.25 0.890625 -1.3125 C 0.867188 -1.363281 0.832031 -1.40625 0.78125 -1.4375 C 0.75 -1.445312 0.710938 -1.453125 0.671875 -1.453125 C 0.628906 -1.453125 0.59375 -1.445312 0.5625 -1.4375 C 0.53125 -1.425781 0.5 -1.410156 0.46875 -1.390625 C 0.445312 -1.378906 0.414062 -1.363281 0.375 -1.34375 C 0.34375 -1.3125 0.316406 -1.296875 0.296875 -1.296875 C 0.285156 -1.296875 0.273438 -1.300781 0.265625 -1.3125 C 0.234375 -1.332031 0.210938 -1.363281 0.203125 -1.40625 C 0.203125 -1.425781 0.222656 -1.460938 0.265625 -1.515625 C 0.296875 -1.546875 0.328125 -1.570312 0.359375 -1.59375 C 0.390625 -1.613281 0.414062 -1.632812 0.4375 -1.65625 C 0.539062 -1.695312 0.660156 -1.726562 0.796875 -1.75 Z M 0.953125 -0.890625 L 0.953125 -0.90625 C 0.773438 -0.882812 0.632812 -0.820312 0.53125 -0.71875 C 0.476562 -0.65625 0.453125 -0.578125 0.453125 -0.484375 C 0.453125 -0.429688 0.460938 -0.390625 0.484375 -0.359375 C 0.492188 -0.347656 0.507812 -0.335938 0.53125 -0.328125 C 0.5625 -0.328125 0.585938 -0.328125 0.609375 -0.328125 C 0.640625 -0.328125 0.664062 -0.332031 0.6875 -0.34375 C 0.71875 -0.351562 0.742188 -0.363281 0.765625 -0.375 C 0.804688 -0.394531 0.835938 -0.414062 0.859375 -0.4375 C 0.890625 -0.46875 0.914062 -0.492188 0.9375 -0.515625 L 0.96875 -0.53125 L 0.96875 -0.65625 C 0.96875 -0.71875 0.960938 -0.769531 0.953125 -0.8125 C 0.953125 -0.851562 0.953125 -0.878906 0.953125 -0.890625 Z M 0.953125 -0.890625 "/></g></g></g><g fill="#000000" fill-opacity="1"><g transform="translate(22.290592, 44.834158)"><g><path d="M 0.1875 -1.78125 C 0.195312 -1.800781 0.21875 -1.800781 0.25 -1.78125 C 0.320312 -1.738281 0.378906 -1.707031 0.421875 -1.6875 C 0.460938 -1.675781 0.488281 -1.664062 0.5 -1.65625 C 0.507812 -1.65625 0.519531 -1.648438 0.53125 -1.640625 C 0.539062 -1.640625 0.546875 -1.632812 0.546875 -1.625 C 0.640625 -1.570312 0.695312 -1.539062 0.71875 -1.53125 C 0.726562 -1.519531 0.734375 -1.515625 0.734375 -1.515625 C 0.734375 -1.515625 0.742188 -1.523438 0.765625 -1.546875 C 0.785156 -1.554688 0.8125 -1.570312 0.84375 -1.59375 C 0.875 -1.613281 0.90625 -1.628906 0.9375 -1.640625 C 0.976562 -1.660156 1.015625 -1.675781 1.046875 -1.6875 C 1.085938 -1.707031 1.125 -1.71875 1.15625 -1.71875 C 1.226562 -1.726562 1.296875 -1.726562 1.359375 -1.71875 C 1.421875 -1.707031 1.453125 -1.695312 1.453125 -1.6875 C 1.453125 -1.675781 1.453125 -1.671875 1.453125 -1.671875 C 1.460938 -1.671875 1.472656 -1.664062 1.484375 -1.65625 C 1.492188 -1.644531 1.507812 -1.632812 1.53125 -1.625 C 1.539062 -1.601562 1.550781 -1.582031 1.5625 -1.5625 C 1.582031 -1.550781 1.597656 -1.535156 1.609375 -1.515625 C 1.617188 -1.492188 1.625 -1.476562 1.625 -1.46875 C 1.632812 -1.46875 1.640625 -1.46875 1.640625 -1.46875 C 1.648438 -1.476562 1.660156 -1.488281 1.671875 -1.5 C 1.734375 -1.5625 1.769531 -1.59375 1.78125 -1.59375 C 1.789062 -1.59375 1.796875 -1.59375 1.796875 -1.59375 C 1.804688 -1.613281 1.820312 -1.628906 1.84375 -1.640625 C 1.875 -1.648438 1.90625 -1.660156 1.9375 -1.671875 C 1.96875 -1.679688 2 -1.691406 2.03125 -1.703125 C 2.0625 -1.710938 2.085938 -1.71875 2.109375 -1.71875 C 2.140625 -1.726562 2.171875 -1.726562 2.203125 -1.71875 C 2.242188 -1.71875 2.285156 -1.71875 2.328125 -1.71875 C 2.367188 -1.695312 2.410156 -1.660156 2.453125 -1.609375 C 2.492188 -1.566406 2.519531 -1.53125 2.53125 -1.5 C 2.539062 -1.46875 2.550781 -1.453125 2.5625 -1.453125 L 2.5625 -1.421875 C 2.570312 -1.410156 2.578125 -1.390625 2.578125 -1.359375 C 2.585938 -1.328125 2.597656 -1.296875 2.609375 -1.265625 C 2.609375 -1.222656 2.609375 -1.140625 2.609375 -1.015625 C 2.617188 -0.898438 2.625 -0.742188 2.625 -0.546875 C 2.625 -0.335938 2.625 -0.226562 2.625 -0.21875 C 2.644531 -0.195312 2.671875 -0.1875 2.703125 -0.1875 C 2.742188 -0.1875 2.765625 -0.1875 2.765625 -0.1875 C 2.773438 -0.1875 2.78125 -0.171875 2.78125 -0.140625 C 2.78125 -0.117188 2.773438 -0.101562 2.765625 -0.09375 C 2.742188 -0.0625 2.710938 -0.0390625 2.671875 -0.03125 C 2.640625 -0.0195312 2.601562 -0.015625 2.5625 -0.015625 C 2.539062 -0.00390625 2.5 0.0078125 2.4375 0.03125 C 2.394531 0.03125 2.351562 0.03125 2.3125 0.03125 C 2.269531 0.0078125 2.238281 -0.0195312 2.21875 -0.0625 C 2.21875 -0.0703125 2.21875 -0.125 2.21875 -0.21875 C 2.21875 -0.3125 2.210938 -0.453125 2.203125 -0.640625 L 2.203125 -1.15625 C 2.203125 -1.175781 2.195312 -1.195312 2.1875 -1.21875 C 2.1875 -1.238281 2.179688 -1.257812 2.171875 -1.28125 C 2.148438 -1.34375 2.113281 -1.378906 2.0625 -1.390625 C 2.007812 -1.410156 1.960938 -1.414062 1.921875 -1.40625 C 1.867188 -1.382812 1.820312 -1.363281 1.78125 -1.34375 C 1.738281 -1.320312 1.707031 -1.289062 1.6875 -1.25 C 1.6875 -1.226562 1.6875 -1.054688 1.6875 -0.734375 L 1.6875 -0.21875 C 1.6875 -0.21875 1.695312 -0.210938 1.71875 -0.203125 C 1.71875 -0.203125 1.722656 -0.203125 1.734375 -0.203125 C 1.742188 -0.203125 1.757812 -0.203125 1.78125 -0.203125 C 1.8125 -0.210938 1.828125 -0.210938 1.828125 -0.203125 C 1.828125 -0.203125 1.828125 -0.1875 1.828125 -0.15625 L 1.828125 -0.09375 L 1.796875 -0.078125 C 1.773438 -0.0664062 1.742188 -0.0507812 1.703125 -0.03125 C 1.660156 -0.0195312 1.609375 -0.0078125 1.546875 0 C 1.484375 0.0078125 1.429688 0.015625 1.390625 0.015625 C 1.359375 0.015625 1.34375 0.015625 1.34375 0.015625 C 1.320312 0.00390625 1.300781 -0.03125 1.28125 -0.09375 C 1.28125 -0.113281 1.273438 -0.285156 1.265625 -0.609375 C 1.265625 -0.773438 1.265625 -0.90625 1.265625 -1 C 1.265625 -1.09375 1.257812 -1.15625 1.25 -1.1875 C 1.226562 -1.269531 1.195312 -1.332031 1.15625 -1.375 C 1.125 -1.40625 1.085938 -1.421875 1.046875 -1.421875 C 0.984375 -1.410156 0.921875 -1.390625 0.859375 -1.359375 C 0.804688 -1.328125 0.769531 -1.28125 0.75 -1.21875 C 0.738281 -1.195312 0.734375 -1.097656 0.734375 -0.921875 C 0.742188 -0.753906 0.75 -0.617188 0.75 -0.515625 C 0.75 -0.410156 0.753906 -0.332031 0.765625 -0.28125 C 0.765625 -0.226562 0.773438 -0.191406 0.796875 -0.171875 C 0.796875 -0.171875 0.800781 -0.164062 0.8125 -0.15625 C 0.832031 -0.15625 0.851562 -0.148438 0.875 -0.140625 C 0.925781 -0.117188 0.957031 -0.101562 0.96875 -0.09375 C 0.976562 -0.0820312 0.984375 -0.0703125 0.984375 -0.0625 C 0.984375 -0.0195312 0.957031 0.0078125 0.90625 0.03125 C 0.875 0.0507812 0.796875 0.046875 0.671875 0.015625 C 0.660156 0.015625 0.648438 0.0078125 0.640625 0 C 0.628906 0 0.617188 0 0.609375 0 C 0.585938 0 0.570312 0 0.5625 0 C 0.5625 0 0.554688 0 0.546875 0 C 0.523438 -0.0078125 0.503906 -0.015625 0.484375 -0.015625 C 0.460938 -0.015625 0.4375 -0.0078125 0.40625 0 C 0.375 0 0.335938 0 0.296875 0 C 0.265625 0.0078125 0.226562 0.0195312 0.1875 0.03125 C 0.144531 0.03125 0.117188 0.03125 0.109375 0.03125 C 0.0859375 0.03125 0.0703125 0.03125 0.0625 0.03125 C 0.0625 0.03125 0.0625 0.0234375 0.0625 0.015625 C 0.0390625 -0.015625 0.03125 -0.0390625 0.03125 -0.0625 C 0.03125 -0.09375 0.0351562 -0.113281 0.046875 -0.125 C 0.0546875 -0.15625 0.09375 -0.175781 0.15625 -0.1875 C 0.207031 -0.195312 0.242188 -0.207031 0.265625 -0.21875 C 0.273438 -0.238281 0.28125 -0.257812 0.28125 -0.28125 C 0.289062 -0.3125 0.300781 -0.347656 0.3125 -0.390625 C 0.3125 -0.410156 0.3125 -0.445312 0.3125 -0.5 C 0.3125 -0.550781 0.3125 -0.617188 0.3125 -0.703125 C 0.320312 -0.859375 0.320312 -1.007812 0.3125 -1.15625 C 0.3125 -1.28125 0.3125 -1.347656 0.3125 -1.359375 C 0.289062 -1.398438 0.269531 -1.429688 0.25 -1.453125 C 0.226562 -1.472656 0.191406 -1.492188 0.140625 -1.515625 C 0.0859375 -1.523438 0.0546875 -1.535156 0.046875 -1.546875 C 0.0351562 -1.554688 0.03125 -1.566406 0.03125 -1.578125 C 0.03125 -1.585938 0.0351562 -1.601562 0.046875 -1.625 C 0.0546875 -1.644531 0.0703125 -1.664062 0.09375 -1.6875 C 0.113281 -1.707031 0.128906 -1.726562 0.140625 -1.75 C 0.160156 -1.769531 0.175781 -1.78125 0.1875 -1.78125 Z M 0.1875 -1.78125 "/></g></g></g><g fill="#000000" fill-opacity="1"><g transform="translate(25.12219, 44.834158)"><g/></g></g><g fill="#000000" fill-opacity="1"><g transform="translate(26.201304, 44.834158)"><g><path d="M 0.21875 -2.65625 C 0.226562 -2.664062 0.242188 -2.671875 0.265625 -2.671875 C 0.273438 -2.671875 0.304688 -2.660156 0.359375 -2.640625 C 0.421875 -2.609375 0.460938 -2.59375 0.484375 -2.59375 C 0.484375 -2.59375 0.492188 -2.59375 0.515625 -2.59375 C 0.535156 -2.59375 0.5625 -2.585938 0.59375 -2.578125 C 0.632812 -2.566406 0.671875 -2.5625 0.703125 -2.5625 C 0.742188 -2.570312 0.78125 -2.582031 0.8125 -2.59375 C 0.882812 -2.601562 0.945312 -2.609375 1 -2.609375 C 1.0625 -2.609375 1.117188 -2.613281 1.171875 -2.625 C 1.296875 -2.625 1.40625 -2.613281 1.5 -2.59375 C 1.601562 -2.582031 1.691406 -2.554688 1.765625 -2.515625 C 1.785156 -2.503906 1.800781 -2.5 1.8125 -2.5 C 1.8125 -2.5 1.816406 -2.492188 1.828125 -2.484375 C 1.847656 -2.472656 1.875 -2.457031 1.90625 -2.4375 C 1.914062 -2.425781 1.925781 -2.421875 1.9375 -2.421875 C 1.945312 -2.421875 1.957031 -2.410156 1.96875 -2.390625 C 1.988281 -2.378906 2.015625 -2.359375 2.046875 -2.328125 C 2.078125 -2.285156 2.097656 -2.253906 2.109375 -2.234375 C 2.128906 -2.210938 2.132812 -2.203125 2.125 -2.203125 C 2.144531 -2.179688 2.15625 -2.15625 2.15625 -2.125 L 2.171875 -2.125 L 2.171875 -2.09375 C 2.179688 -2.070312 2.1875 -2.0625 2.1875 -2.0625 C 2.195312 -2.0625 2.207031 -2.035156 2.21875 -1.984375 L 2.21875 -1.96875 C 2.226562 -1.96875 2.234375 -1.96875 2.234375 -1.96875 C 2.234375 -1.96875 2.238281 -1.957031 2.25 -1.9375 C 2.257812 -1.894531 2.265625 -1.851562 2.265625 -1.8125 C 2.273438 -1.78125 2.285156 -1.75 2.296875 -1.71875 L 2.296875 -1.671875 C 2.296875 -1.648438 2.296875 -1.617188 2.296875 -1.578125 C 2.296875 -1.535156 2.296875 -1.472656 2.296875 -1.390625 C 2.304688 -1.304688 2.304688 -1.234375 2.296875 -1.171875 C 2.296875 -1.117188 2.296875 -1.070312 2.296875 -1.03125 L 2.296875 -1 C 2.296875 -1 2.296875 -0.992188 2.296875 -0.984375 C 2.296875 -0.972656 2.289062 -0.953125 2.28125 -0.921875 C 2.269531 -0.890625 2.253906 -0.859375 2.234375 -0.828125 C 2.222656 -0.796875 2.207031 -0.765625 2.1875 -0.734375 C 2.175781 -0.703125 2.160156 -0.671875 2.140625 -0.640625 C 2.140625 -0.628906 2.140625 -0.617188 2.140625 -0.609375 C 2.140625 -0.609375 2.132812 -0.601562 2.125 -0.59375 C 2.125 -0.582031 2.125 -0.578125 2.125 -0.578125 C 2.050781 -0.472656 1.976562 -0.378906 1.90625 -0.296875 C 1.832031 -0.210938 1.738281 -0.148438 1.625 -0.109375 C 1.625 -0.0976562 1.613281 -0.0859375 1.59375 -0.078125 C 1.570312 -0.078125 1.550781 -0.0703125 1.53125 -0.0625 C 1.519531 -0.0625 1.503906 -0.0546875 1.484375 -0.046875 C 1.472656 -0.0351562 1.46875 -0.03125 1.46875 -0.03125 C 1.414062 -0.0078125 1.359375 0 1.296875 0 C 1.234375 0.0078125 1.175781 0.015625 1.125 0.015625 C 1.101562 0.015625 1.070312 0.015625 1.03125 0.015625 C 1 0.015625 0.960938 0.0078125 0.921875 0 C 0.890625 -0.0078125 0.851562 -0.0195312 0.8125 -0.03125 C 0.78125 -0.0390625 0.757812 -0.0507812 0.75 -0.0625 C 0.738281 -0.0625 0.722656 -0.0625 0.703125 -0.0625 C 0.679688 -0.0703125 0.671875 -0.078125 0.671875 -0.078125 C 0.648438 -0.078125 0.632812 -0.0664062 0.625 -0.046875 C 0.613281 -0.015625 0.585938 0.00390625 0.546875 0.015625 C 0.523438 0.0234375 0.476562 0.015625 0.40625 -0.015625 C 0.382812 -0.0234375 0.363281 -0.0390625 0.34375 -0.0625 C 0.332031 -0.0820312 0.304688 -0.132812 0.265625 -0.21875 C 0.273438 -0.238281 0.28125 -0.285156 0.28125 -0.359375 C 0.28125 -0.429688 0.28125 -0.53125 0.28125 -0.65625 C 0.269531 -0.71875 0.265625 -0.78125 0.265625 -0.84375 C 0.265625 -0.90625 0.265625 -0.960938 0.265625 -1.015625 C 0.273438 -1.117188 0.273438 -1.3125 0.265625 -1.59375 C 0.265625 -1.675781 0.265625 -1.742188 0.265625 -1.796875 C 0.265625 -1.859375 0.265625 -1.914062 0.265625 -1.96875 C 0.265625 -2.101562 0.253906 -2.195312 0.234375 -2.25 C 0.234375 -2.257812 0.226562 -2.269531 0.21875 -2.28125 C 0.21875 -2.289062 0.210938 -2.296875 0.203125 -2.296875 C 0.179688 -2.304688 0.148438 -2.316406 0.109375 -2.328125 C 0.078125 -2.335938 0.0546875 -2.34375 0.046875 -2.34375 C 0.046875 -2.351562 0.046875 -2.363281 0.046875 -2.375 C 0.046875 -2.382812 0.046875 -2.398438 0.046875 -2.421875 C 0.046875 -2.441406 0.0507812 -2.460938 0.0625 -2.484375 C 0.0820312 -2.515625 0.109375 -2.546875 0.140625 -2.578125 C 0.171875 -2.617188 0.195312 -2.644531 0.21875 -2.65625 Z M 1.234375 -2.296875 C 1.203125 -2.304688 1.164062 -2.3125 1.125 -2.3125 C 1.082031 -2.3125 1.035156 -2.3125 0.984375 -2.3125 C 0.941406 -2.3125 0.898438 -2.304688 0.859375 -2.296875 C 0.816406 -2.296875 0.785156 -2.296875 0.765625 -2.296875 C 0.753906 -2.285156 0.742188 -2.28125 0.734375 -2.28125 C 0.722656 -2.28125 0.71875 -2.28125 0.71875 -2.28125 L 0.703125 -2.28125 L 0.703125 -1.96875 C 0.703125 -1.851562 0.703125 -1.710938 0.703125 -1.546875 C 0.703125 -1.390625 0.703125 -1.210938 0.703125 -1.015625 L 0.703125 -0.359375 C 0.742188 -0.347656 0.78125 -0.332031 0.8125 -0.3125 C 0.832031 -0.3125 0.851562 -0.304688 0.875 -0.296875 C 0.894531 -0.285156 0.914062 -0.273438 0.9375 -0.265625 C 0.96875 -0.253906 0.992188 -0.242188 1.015625 -0.234375 C 1.046875 -0.234375 1.070312 -0.234375 1.09375 -0.234375 C 1.207031 -0.234375 1.304688 -0.253906 1.390625 -0.296875 C 1.472656 -0.347656 1.550781 -0.414062 1.625 -0.5 C 1.738281 -0.644531 1.8125 -0.835938 1.84375 -1.078125 C 1.84375 -1.148438 1.84375 -1.226562 1.84375 -1.3125 C 1.84375 -1.40625 1.835938 -1.5 1.828125 -1.59375 C 1.816406 -1.695312 1.796875 -1.796875 1.765625 -1.890625 C 1.734375 -1.992188 1.675781 -2.082031 1.59375 -2.15625 C 1.570312 -2.175781 1.554688 -2.1875 1.546875 -2.1875 C 1.546875 -2.1875 1.535156 -2.195312 1.515625 -2.21875 C 1.484375 -2.238281 1.46875 -2.25 1.46875 -2.25 C 1.46875 -2.25 1.460938 -2.25 1.453125 -2.25 C 1.441406 -2.257812 1.429688 -2.265625 1.421875 -2.265625 C 1.398438 -2.265625 1.390625 -2.265625 1.390625 -2.265625 C 1.390625 -2.265625 1.390625 -2.269531 1.390625 -2.28125 C 1.378906 -2.28125 1.367188 -2.28125 1.359375 -2.28125 C 1.359375 -2.28125 1.347656 -2.28125 1.328125 -2.28125 C 1.316406 -2.28125 1.300781 -2.28125 1.28125 -2.28125 C 1.257812 -2.289062 1.242188 -2.296875 1.234375 -2.296875 Z M 1.234375 -2.296875 "/></g></g></g><g fill="#000000" fill-opacity="1"><g transform="translate(28.596939, 44.834158)"><g><path d="M 0.84375 -1.734375 C 0.925781 -1.734375 1 -1.722656 1.0625 -1.703125 C 1.101562 -1.691406 1.140625 -1.671875 1.171875 -1.640625 C 1.210938 -1.617188 1.25 -1.59375 1.28125 -1.5625 C 1.351562 -1.488281 1.40625 -1.398438 1.4375 -1.296875 C 1.457031 -1.242188 1.46875 -1.179688 1.46875 -1.109375 C 1.46875 -0.984375 1.4375 -0.890625 1.375 -0.828125 C 1.320312 -0.785156 1.238281 -0.757812 1.125 -0.75 C 1.101562 -0.738281 1.066406 -0.734375 1.015625 -0.734375 C 0.960938 -0.734375 0.898438 -0.734375 0.828125 -0.734375 C 0.671875 -0.734375 0.554688 -0.738281 0.484375 -0.75 C 0.472656 -0.75 0.460938 -0.75 0.453125 -0.75 C 0.453125 -0.738281 0.457031 -0.710938 0.46875 -0.671875 C 0.476562 -0.628906 0.488281 -0.601562 0.5 -0.59375 C 0.507812 -0.5625 0.519531 -0.535156 0.53125 -0.515625 C 0.550781 -0.492188 0.570312 -0.46875 0.59375 -0.4375 C 0.644531 -0.394531 0.703125 -0.363281 0.765625 -0.34375 C 0.785156 -0.332031 0.804688 -0.320312 0.828125 -0.3125 C 0.859375 -0.300781 0.890625 -0.296875 0.921875 -0.296875 C 0.953125 -0.296875 0.988281 -0.296875 1.03125 -0.296875 C 1.070312 -0.296875 1.113281 -0.296875 1.15625 -0.296875 C 1.207031 -0.304688 1.25 -0.316406 1.28125 -0.328125 C 1.3125 -0.347656 1.335938 -0.363281 1.359375 -0.375 C 1.367188 -0.382812 1.378906 -0.390625 1.390625 -0.390625 C 1.398438 -0.398438 1.40625 -0.40625 1.40625 -0.40625 C 1.4375 -0.425781 1.457031 -0.429688 1.46875 -0.421875 C 1.46875 -0.410156 1.46875 -0.390625 1.46875 -0.359375 C 1.457031 -0.273438 1.425781 -0.207031 1.375 -0.15625 C 1.332031 -0.101562 1.28125 -0.0625 1.21875 -0.03125 C 1.164062 -0.0078125 1.101562 0.00390625 1.03125 0.015625 C 1.007812 0.015625 0.984375 0.015625 0.953125 0.015625 C 0.929688 0.0234375 0.898438 0.03125 0.859375 0.03125 C 0.765625 0.0195312 0.679688 0.0078125 0.609375 0 C 0.546875 -0.0078125 0.5 -0.0234375 0.46875 -0.046875 C 0.445312 -0.0546875 0.425781 -0.0664062 0.40625 -0.078125 C 0.394531 -0.0859375 0.382812 -0.09375 0.375 -0.09375 C 0.320312 -0.132812 0.269531 -0.191406 0.21875 -0.265625 C 0.164062 -0.347656 0.132812 -0.425781 0.125 -0.5 C 0.101562 -0.570312 0.0859375 -0.648438 0.078125 -0.734375 C 0.078125 -0.816406 0.0820312 -0.90625 0.09375 -1 C 0.113281 -1.207031 0.1875 -1.375 0.3125 -1.5 C 0.394531 -1.570312 0.476562 -1.625 0.5625 -1.65625 C 0.644531 -1.695312 0.738281 -1.722656 0.84375 -1.734375 Z M 0.875 -1.5 C 0.863281 -1.507812 0.835938 -1.515625 0.796875 -1.515625 C 0.765625 -1.515625 0.738281 -1.515625 0.71875 -1.515625 C 0.6875 -1.503906 0.65625 -1.488281 0.625 -1.46875 C 0.59375 -1.457031 0.566406 -1.441406 0.546875 -1.421875 C 0.503906 -1.367188 0.472656 -1.269531 0.453125 -1.125 C 0.453125 -1.101562 0.453125 -1.082031 0.453125 -1.0625 C 0.453125 -1.050781 0.445312 -1.035156 0.4375 -1.015625 L 0.4375 -0.96875 L 0.640625 -0.96875 C 0.828125 -0.976562 0.9375 -0.988281 0.96875 -1 C 1.03125 -1.03125 1.0625 -1.070312 1.0625 -1.125 C 1.0625 -1.207031 1.046875 -1.289062 1.015625 -1.375 C 0.984375 -1.4375 0.9375 -1.476562 0.875 -1.5 Z M 0.875 -1.5 "/></g></g></g><g fill="#000000" fill-opacity="1"><g transform="translate(30.142231, 44.834158)"><g><path d="M 0.171875 -2.71875 C 0.203125 -2.726562 0.265625 -2.707031 0.359375 -2.65625 C 0.390625 -2.632812 0.414062 -2.617188 0.4375 -2.609375 C 0.46875 -2.597656 0.492188 -2.585938 0.515625 -2.578125 C 0.578125 -2.554688 0.625 -2.53125 0.65625 -2.5 C 0.65625 -2.488281 0.65625 -2.46875 0.65625 -2.4375 C 0.664062 -2.414062 0.671875 -2.390625 0.671875 -2.359375 C 0.671875 -2.335938 0.671875 -2.320312 0.671875 -2.3125 C 0.671875 -2.300781 0.671875 -2.285156 0.671875 -2.265625 C 0.671875 -2.253906 0.664062 -2.238281 0.65625 -2.21875 C 0.65625 -2.207031 0.65625 -2.1875 0.65625 -2.15625 C 0.65625 -2.144531 0.648438 -2.125 0.640625 -2.09375 C 0.640625 -2.070312 0.640625 -2.035156 0.640625 -1.984375 C 0.628906 -1.960938 0.625 -1.941406 0.625 -1.921875 C 0.625 -1.898438 0.625 -1.882812 0.625 -1.875 C 0.625 -1.851562 0.625 -1.832031 0.625 -1.8125 C 0.625 -1.800781 0.625 -1.789062 0.625 -1.78125 C 0.613281 -1.707031 0.609375 -1.65625 0.609375 -1.625 C 0.609375 -1.601562 0.609375 -1.59375 0.609375 -1.59375 C 0.609375 -1.59375 0.617188 -1.597656 0.640625 -1.609375 C 0.691406 -1.640625 0.75 -1.671875 0.8125 -1.703125 C 0.863281 -1.722656 0.910156 -1.734375 0.953125 -1.734375 C 1.003906 -1.742188 1.054688 -1.75 1.109375 -1.75 C 1.242188 -1.726562 1.363281 -1.675781 1.46875 -1.59375 C 1.488281 -1.582031 1.515625 -1.5625 1.546875 -1.53125 C 1.578125 -1.5 1.59375 -1.476562 1.59375 -1.46875 C 1.601562 -1.457031 1.609375 -1.441406 1.609375 -1.421875 C 1.617188 -1.410156 1.628906 -1.394531 1.640625 -1.375 C 1.691406 -1.269531 1.71875 -1.128906 1.71875 -0.953125 C 1.71875 -0.867188 1.707031 -0.769531 1.6875 -0.65625 C 1.664062 -0.550781 1.628906 -0.460938 1.578125 -0.390625 C 1.578125 -0.390625 1.570312 -0.382812 1.5625 -0.375 C 1.539062 -0.320312 1.5 -0.265625 1.4375 -0.203125 C 1.375 -0.140625 1.320312 -0.09375 1.28125 -0.0625 L 1.234375 -0.046875 C 1.097656 0.0234375 0.9375 0.0546875 0.75 0.046875 C 0.675781 0.0351562 0.597656 0.015625 0.515625 -0.015625 L 0.453125 -0.03125 L 0.421875 -0.015625 C 0.390625 0.0234375 0.359375 0.046875 0.328125 0.046875 C 0.296875 0.046875 0.265625 0.03125 0.234375 0 C 0.203125 -0.0390625 0.179688 -0.078125 0.171875 -0.109375 C 0.160156 -0.140625 0.160156 -0.179688 0.171875 -0.234375 C 0.179688 -0.335938 0.191406 -0.460938 0.203125 -0.609375 C 0.210938 -0.765625 0.21875 -0.941406 0.21875 -1.140625 C 0.21875 -1.273438 0.21875 -1.382812 0.21875 -1.46875 C 0.21875 -1.5625 0.210938 -1.628906 0.203125 -1.671875 C 0.203125 -1.703125 0.195312 -1.738281 0.1875 -1.78125 C 0.1875 -1.820312 0.1875 -1.867188 0.1875 -1.921875 C 0.175781 -2.046875 0.164062 -2.144531 0.15625 -2.21875 C 0.15625 -2.289062 0.148438 -2.34375 0.140625 -2.375 C 0.128906 -2.40625 0.101562 -2.429688 0.0625 -2.453125 C 0.0078125 -2.472656 -0.015625 -2.492188 -0.015625 -2.515625 L -0.015625 -2.546875 C -0.015625 -2.554688 -0.0078125 -2.570312 0 -2.59375 C 0.0195312 -2.613281 0.0390625 -2.628906 0.0625 -2.640625 C 0.0820312 -2.660156 0.101562 -2.675781 0.125 -2.6875 C 0.144531 -2.707031 0.160156 -2.71875 0.171875 -2.71875 Z M 0.953125 -1.421875 C 0.898438 -1.421875 0.863281 -1.414062 0.84375 -1.40625 C 0.832031 -1.394531 0.8125 -1.390625 0.78125 -1.390625 C 0.726562 -1.367188 0.671875 -1.328125 0.609375 -1.265625 L 0.59375 -1.25 L 0.59375 -1.109375 C 0.582031 -1.003906 0.578125 -0.894531 0.578125 -0.78125 C 0.578125 -0.675781 0.582031 -0.566406 0.59375 -0.453125 C 0.59375 -0.304688 0.597656 -0.234375 0.609375 -0.234375 C 0.617188 -0.234375 0.625 -0.234375 0.625 -0.234375 C 0.644531 -0.210938 0.710938 -0.195312 0.828125 -0.1875 C 0.847656 -0.1875 0.867188 -0.1875 0.890625 -0.1875 C 0.921875 -0.1875 0.953125 -0.191406 0.984375 -0.203125 C 1.054688 -0.210938 1.113281 -0.238281 1.15625 -0.28125 C 1.195312 -0.332031 1.226562 -0.390625 1.25 -0.453125 C 1.28125 -0.515625 1.300781 -0.578125 1.3125 -0.640625 C 1.320312 -0.710938 1.328125 -0.773438 1.328125 -0.828125 C 1.328125 -0.890625 1.320312 -0.945312 1.3125 -1 C 1.3125 -1.050781 1.304688 -1.097656 1.296875 -1.140625 C 1.273438 -1.203125 1.234375 -1.265625 1.171875 -1.328125 C 1.109375 -1.390625 1.035156 -1.421875 0.953125 -1.421875 Z M 0.953125 -1.421875 "/></g></g></g><g fill="#000000" fill-opacity="1"><g transform="translate(31.955145, 44.834158)"><g><path d="M 0.90625 -1.734375 C 0.90625 -1.734375 0.9375 -1.734375 1 -1.734375 C 1.03125 -1.734375 1.050781 -1.726562 1.0625 -1.71875 C 1.070312 -1.71875 1.078125 -1.71875 1.078125 -1.71875 C 1.085938 -1.71875 1.09375 -1.71875 1.09375 -1.71875 C 1.09375 -1.71875 1.097656 -1.71875 1.109375 -1.71875 C 1.117188 -1.71875 1.132812 -1.707031 1.15625 -1.6875 C 1.15625 -1.6875 1.160156 -1.6875 1.171875 -1.6875 C 1.171875 -1.6875 1.175781 -1.679688 1.1875 -1.671875 C 1.207031 -1.671875 1.226562 -1.664062 1.25 -1.65625 C 1.289062 -1.625 1.3125 -1.609375 1.3125 -1.609375 C 1.320312 -1.597656 1.328125 -1.59375 1.328125 -1.59375 C 1.335938 -1.59375 1.359375 -1.578125 1.390625 -1.546875 C 1.429688 -1.515625 1.453125 -1.5 1.453125 -1.5 C 1.453125 -1.488281 1.453125 -1.476562 1.453125 -1.46875 C 1.460938 -1.46875 1.472656 -1.460938 1.484375 -1.453125 C 1.515625 -1.421875 1.546875 -1.375 1.578125 -1.3125 C 1.609375 -1.25 1.632812 -1.171875 1.65625 -1.078125 C 1.664062 -1.023438 1.671875 -0.945312 1.671875 -0.84375 C 1.671875 -0.789062 1.664062 -0.742188 1.65625 -0.703125 C 1.65625 -0.660156 1.648438 -0.617188 1.640625 -0.578125 C 1.628906 -0.535156 1.613281 -0.488281 1.59375 -0.4375 C 1.570312 -0.382812 1.539062 -0.332031 1.5 -0.28125 C 1.445312 -0.21875 1.382812 -0.160156 1.3125 -0.109375 C 1.28125 -0.078125 1.25 -0.0507812 1.21875 -0.03125 C 1.1875 -0.0195312 1.15625 -0.015625 1.125 -0.015625 C 1.070312 0.00390625 1.023438 0.015625 0.984375 0.015625 C 0.941406 0.0234375 0.894531 0.03125 0.84375 0.03125 C 0.71875 0.03125 0.601562 0.0078125 0.5 -0.03125 C 0.382812 -0.0820312 0.296875 -0.164062 0.234375 -0.28125 C 0.222656 -0.320312 0.207031 -0.359375 0.1875 -0.390625 C 0.175781 -0.421875 0.164062 -0.453125 0.15625 -0.484375 C 0.125 -0.546875 0.109375 -0.609375 0.109375 -0.671875 C 0.0664062 -0.941406 0.09375 -1.164062 0.1875 -1.34375 C 0.257812 -1.46875 0.363281 -1.570312 0.5 -1.65625 C 0.582031 -1.707031 0.6875 -1.734375 0.8125 -1.734375 Z M 0.9375 -1.546875 C 0.851562 -1.566406 0.773438 -1.554688 0.703125 -1.515625 C 0.679688 -1.503906 0.644531 -1.46875 0.59375 -1.40625 C 0.570312 -1.375 0.554688 -1.34375 0.546875 -1.3125 C 0.535156 -1.289062 0.523438 -1.269531 0.515625 -1.25 C 0.503906 -1.195312 0.5 -1.109375 0.5 -0.984375 C 0.488281 -0.910156 0.488281 -0.84375 0.5 -0.78125 C 0.507812 -0.726562 0.515625 -0.675781 0.515625 -0.625 C 0.523438 -0.601562 0.53125 -0.582031 0.53125 -0.5625 C 0.53125 -0.550781 0.53125 -0.539062 0.53125 -0.53125 C 0.539062 -0.5 0.550781 -0.460938 0.5625 -0.421875 C 0.582031 -0.378906 0.597656 -0.34375 0.609375 -0.3125 C 0.648438 -0.238281 0.710938 -0.191406 0.796875 -0.171875 C 0.890625 -0.148438 0.972656 -0.160156 1.046875 -0.203125 C 1.085938 -0.234375 1.117188 -0.28125 1.140625 -0.34375 C 1.171875 -0.40625 1.195312 -0.476562 1.21875 -0.5625 C 1.226562 -0.601562 1.234375 -0.648438 1.234375 -0.703125 C 1.234375 -0.765625 1.234375 -0.832031 1.234375 -0.90625 C 1.234375 -1.050781 1.226562 -1.15625 1.21875 -1.21875 C 1.195312 -1.34375 1.160156 -1.429688 1.109375 -1.484375 C 1.085938 -1.492188 1.0625 -1.503906 1.03125 -1.515625 C 1.007812 -1.523438 0.976562 -1.535156 0.9375 -1.546875 Z M 0.9375 -1.546875 "/></g></g></g><g fill="#000000" fill-opacity="1"><g transform="translate(33.707626, 44.834158)"><g><path d="M 0.265625 -2.421875 C 0.273438 -2.421875 0.320312 -2.394531 0.40625 -2.34375 C 0.519531 -2.28125 0.582031 -2.25 0.59375 -2.25 C 0.59375 -2.25 0.601562 -2.238281 0.625 -2.21875 C 0.644531 -2.207031 0.65625 -2.195312 0.65625 -2.1875 C 0.664062 -2.15625 0.671875 -2.101562 0.671875 -2.03125 C 0.660156 -2.007812 0.65625 -1.984375 0.65625 -1.953125 C 0.65625 -1.921875 0.65625 -1.882812 0.65625 -1.84375 C 0.644531 -1.757812 0.640625 -1.710938 0.640625 -1.703125 C 0.640625 -1.703125 0.648438 -1.703125 0.671875 -1.703125 C 0.691406 -1.703125 0.710938 -1.703125 0.734375 -1.703125 C 0.753906 -1.710938 0.773438 -1.722656 0.796875 -1.734375 C 0.828125 -1.742188 0.847656 -1.753906 0.859375 -1.765625 C 0.890625 -1.785156 0.914062 -1.785156 0.9375 -1.765625 C 0.9375 -1.765625 0.945312 -1.75 0.96875 -1.71875 C 0.988281 -1.6875 1.007812 -1.648438 1.03125 -1.609375 C 1.0625 -1.578125 1.082031 -1.546875 1.09375 -1.515625 C 1.113281 -1.484375 1.128906 -1.46875 1.140625 -1.46875 C 1.148438 -1.425781 1.128906 -1.394531 1.078125 -1.375 C 1.054688 -1.351562 1.03125 -1.34375 1 -1.34375 C 0.988281 -1.34375 0.976562 -1.34375 0.96875 -1.34375 C 0.957031 -1.351562 0.941406 -1.359375 0.921875 -1.359375 C 0.910156 -1.367188 0.894531 -1.375 0.875 -1.375 C 0.851562 -1.382812 0.832031 -1.390625 0.8125 -1.390625 L 0.640625 -1.390625 L 0.640625 -1.203125 C 0.640625 -0.972656 0.640625 -0.796875 0.640625 -0.671875 C 0.640625 -0.546875 0.640625 -0.457031 0.640625 -0.40625 C 0.640625 -0.363281 0.648438 -0.328125 0.671875 -0.296875 C 0.691406 -0.273438 0.726562 -0.265625 0.78125 -0.265625 C 0.800781 -0.265625 0.828125 -0.265625 0.859375 -0.265625 C 0.890625 -0.273438 0.925781 -0.289062 0.96875 -0.3125 C 0.976562 -0.3125 0.984375 -0.3125 0.984375 -0.3125 C 0.992188 -0.320312 1.003906 -0.328125 1.015625 -0.328125 C 1.023438 -0.328125 1.019531 -0.316406 1 -0.296875 C 1 -0.253906 0.988281 -0.21875 0.96875 -0.1875 C 0.957031 -0.164062 0.941406 -0.144531 0.921875 -0.125 C 0.878906 -0.0820312 0.828125 -0.046875 0.765625 -0.015625 C 0.710938 0.015625 0.65625 0.03125 0.59375 0.03125 C 0.53125 0.03125 0.476562 0.0195312 0.4375 0 C 0.40625 -0.0195312 0.375 -0.046875 0.34375 -0.078125 C 0.320312 -0.117188 0.304688 -0.160156 0.296875 -0.203125 C 0.285156 -0.253906 0.273438 -0.304688 0.265625 -0.359375 C 0.265625 -0.378906 0.265625 -0.425781 0.265625 -0.5 C 0.265625 -0.570312 0.265625 -0.675781 0.265625 -0.8125 C 0.265625 -0.96875 0.265625 -1.09375 0.265625 -1.1875 C 0.265625 -1.28125 0.265625 -1.328125 0.265625 -1.328125 L 0.234375 -1.328125 C 0.234375 -1.328125 0.21875 -1.320312 0.1875 -1.3125 C 0.125 -1.300781 0.0820312 -1.304688 0.0625 -1.328125 C 0.0390625 -1.359375 0.0195312 -1.40625 0 -1.46875 C -0.0078125 -1.5 -0.015625 -1.523438 -0.015625 -1.546875 C -0.015625 -1.578125 -0.015625 -1.601562 -0.015625 -1.625 C -0.015625 -1.664062 0.0078125 -1.675781 0.0625 -1.65625 C 0.0703125 -1.65625 0.0859375 -1.65625 0.109375 -1.65625 C 0.128906 -1.65625 0.15625 -1.65625 0.1875 -1.65625 L 0.265625 -1.65625 L 0.265625 -1.765625 C 0.265625 -1.898438 0.253906 -1.992188 0.234375 -2.046875 C 0.234375 -2.078125 0.21875 -2.101562 0.1875 -2.125 C 0.175781 -2.132812 0.160156 -2.140625 0.140625 -2.140625 C 0.117188 -2.148438 0.109375 -2.164062 0.109375 -2.1875 C 0.0976562 -2.207031 0.0976562 -2.226562 0.109375 -2.25 C 0.117188 -2.269531 0.132812 -2.296875 0.15625 -2.328125 C 0.195312 -2.378906 0.234375 -2.410156 0.265625 -2.421875 Z M 0.265625 -2.421875 "/></g></g></g><g fill="#000000" fill-opacity="1"><g transform="translate(34.829906, 44.834158)"><g><path d="M 0.265625 -2.421875 C 0.273438 -2.421875 0.320312 -2.394531 0.40625 -2.34375 C 0.519531 -2.28125 0.582031 -2.25 0.59375 -2.25 C 0.59375 -2.25 0.601562 -2.238281 0.625 -2.21875 C 0.644531 -2.207031 0.65625 -2.195312 0.65625 -2.1875 C 0.664062 -2.15625 0.671875 -2.101562 0.671875 -2.03125 C 0.660156 -2.007812 0.65625 -1.984375 0.65625 -1.953125 C 0.65625 -1.921875 0.65625 -1.882812 0.65625 -1.84375 C 0.644531 -1.757812 0.640625 -1.710938 0.640625 -1.703125 C 0.640625 -1.703125 0.648438 -1.703125 0.671875 -1.703125 C 0.691406 -1.703125 0.710938 -1.703125 0.734375 -1.703125 C 0.753906 -1.710938 0.773438 -1.722656 0.796875 -1.734375 C 0.828125 -1.742188 0.847656 -1.753906 0.859375 -1.765625 C 0.890625 -1.785156 0.914062 -1.785156 0.9375 -1.765625 C 0.9375 -1.765625 0.945312 -1.75 0.96875 -1.71875 C 0.988281 -1.6875 1.007812 -1.648438 1.03125 -1.609375 C 1.0625 -1.578125 1.082031 -1.546875 1.09375 -1.515625 C 1.113281 -1.484375 1.128906 -1.46875 1.140625 -1.46875 C 1.148438 -1.425781 1.128906 -1.394531 1.078125 -1.375 C 1.054688 -1.351562 1.03125 -1.34375 1 -1.34375 C 0.988281 -1.34375 0.976562 -1.34375 0.96875 -1.34375 C 0.957031 -1.351562 0.941406 -1.359375 0.921875 -1.359375 C 0.910156 -1.367188 0.894531 -1.375 0.875 -1.375 C 0.851562 -1.382812 0.832031 -1.390625 0.8125 -1.390625 L 0.640625 -1.390625 L 0.640625 -1.203125 C 0.640625 -0.972656 0.640625 -0.796875 0.640625 -0.671875 C 0.640625 -0.546875 0.640625 -0.457031 0.640625 -0.40625 C 0.640625 -0.363281 0.648438 -0.328125 0.671875 -0.296875 C 0.691406 -0.273438 0.726562 -0.265625 0.78125 -0.265625 C 0.800781 -0.265625 0.828125 -0.265625 0.859375 -0.265625 C 0.890625 -0.273438 0.925781 -0.289062 0.96875 -0.3125 C 0.976562 -0.3125 0.984375 -0.3125 0.984375 -0.3125 C 0.992188 -0.320312 1.003906 -0.328125 1.015625 -0.328125 C 1.023438 -0.328125 1.019531 -0.316406 1 -0.296875 C 1 -0.253906 0.988281 -0.21875 0.96875 -0.1875 C 0.957031 -0.164062 0.941406 -0.144531 0.921875 -0.125 C 0.878906 -0.0820312 0.828125 -0.046875 0.765625 -0.015625 C 0.710938 0.015625 0.65625 0.03125 0.59375 0.03125 C 0.53125 0.03125 0.476562 0.0195312 0.4375 0 C 0.40625 -0.0195312 0.375 -0.046875 0.34375 -0.078125 C 0.320312 -0.117188 0.304688 -0.160156 0.296875 -0.203125 C 0.285156 -0.253906 0.273438 -0.304688 0.265625 -0.359375 C 0.265625 -0.378906 0.265625 -0.425781 0.265625 -0.5 C 0.265625 -0.570312 0.265625 -0.675781 0.265625 -0.8125 C 0.265625 -0.96875 0.265625 -1.09375 0.265625 -1.1875 C 0.265625 -1.28125 0.265625 -1.328125 0.265625 -1.328125 L 0.234375 -1.328125 C 0.234375 -1.328125 0.21875 -1.320312 0.1875 -1.3125 C 0.125 -1.300781 0.0820312 -1.304688 0.0625 -1.328125 C 0.0390625 -1.359375 0.0195312 -1.40625 0 -1.46875 C -0.0078125 -1.5 -0.015625 -1.523438 -0.015625 -1.546875 C -0.015625 -1.578125 -0.015625 -1.601562 -0.015625 -1.625 C -0.015625 -1.664062 0.0078125 -1.675781 0.0625 -1.65625 C 0.0703125 -1.65625 0.0859375 -1.65625 0.109375 -1.65625 C 0.128906 -1.65625 0.15625 -1.65625 0.1875 -1.65625 L 0.265625 -1.65625 L 0.265625 -1.765625 C 0.265625 -1.898438 0.253906 -1.992188 0.234375 -2.046875 C 0.234375 -2.078125 0.21875 -2.101562 0.1875 -2.125 C 0.175781 -2.132812 0.160156 -2.140625 0.140625 -2.140625 C 0.117188 -2.148438 0.109375 -2.164062 0.109375 -2.1875 C 0.0976562 -2.207031 0.0976562 -2.226562 0.109375 -2.25 C 0.117188 -2.269531 0.132812 -2.296875 0.15625 -2.328125 C 0.195312 -2.378906 0.234375 -2.410156 0.265625 -2.421875 Z M 0.265625 -2.421875 "/></g></g></g><g fill="#000000" fill-opacity="1"><g transform="translate(35.952186, 44.834158)"><g><path d="M 0.84375 -1.734375 C 0.925781 -1.734375 1 -1.722656 1.0625 -1.703125 C 1.101562 -1.691406 1.140625 -1.671875 1.171875 -1.640625 C 1.210938 -1.617188 1.25 -1.59375 1.28125 -1.5625 C 1.351562 -1.488281 1.40625 -1.398438 1.4375 -1.296875 C 1.457031 -1.242188 1.46875 -1.179688 1.46875 -1.109375 C 1.46875 -0.984375 1.4375 -0.890625 1.375 -0.828125 C 1.320312 -0.785156 1.238281 -0.757812 1.125 -0.75 C 1.101562 -0.738281 1.066406 -0.734375 1.015625 -0.734375 C 0.960938 -0.734375 0.898438 -0.734375 0.828125 -0.734375 C 0.671875 -0.734375 0.554688 -0.738281 0.484375 -0.75 C 0.472656 -0.75 0.460938 -0.75 0.453125 -0.75 C 0.453125 -0.738281 0.457031 -0.710938 0.46875 -0.671875 C 0.476562 -0.628906 0.488281 -0.601562 0.5 -0.59375 C 0.507812 -0.5625 0.519531 -0.535156 0.53125 -0.515625 C 0.550781 -0.492188 0.570312 -0.46875 0.59375 -0.4375 C 0.644531 -0.394531 0.703125 -0.363281 0.765625 -0.34375 C 0.785156 -0.332031 0.804688 -0.320312 0.828125 -0.3125 C 0.859375 -0.300781 0.890625 -0.296875 0.921875 -0.296875 C 0.953125 -0.296875 0.988281 -0.296875 1.03125 -0.296875 C 1.070312 -0.296875 1.113281 -0.296875 1.15625 -0.296875 C 1.207031 -0.304688 1.25 -0.316406 1.28125 -0.328125 C 1.3125 -0.347656 1.335938 -0.363281 1.359375 -0.375 C 1.367188 -0.382812 1.378906 -0.390625 1.390625 -0.390625 C 1.398438 -0.398438 1.40625 -0.40625 1.40625 -0.40625 C 1.4375 -0.425781 1.457031 -0.429688 1.46875 -0.421875 C 1.46875 -0.410156 1.46875 -0.390625 1.46875 -0.359375 C 1.457031 -0.273438 1.425781 -0.207031 1.375 -0.15625 C 1.332031 -0.101562 1.28125 -0.0625 1.21875 -0.03125 C 1.164062 -0.0078125 1.101562 0.00390625 1.03125 0.015625 C 1.007812 0.015625 0.984375 0.015625 0.953125 0.015625 C 0.929688 0.0234375 0.898438 0.03125 0.859375 0.03125 C 0.765625 0.0195312 0.679688 0.0078125 0.609375 0 C 0.546875 -0.0078125 0.5 -0.0234375 0.46875 -0.046875 C 0.445312 -0.0546875 0.425781 -0.0664062 0.40625 -0.078125 C 0.394531 -0.0859375 0.382812 -0.09375 0.375 -0.09375 C 0.320312 -0.132812 0.269531 -0.191406 0.21875 -0.265625 C 0.164062 -0.347656 0.132812 -0.425781 0.125 -0.5 C 0.101562 -0.570312 0.0859375 -0.648438 0.078125 -0.734375 C 0.078125 -0.816406 0.0820312 -0.90625 0.09375 -1 C 0.113281 -1.207031 0.1875 -1.375 0.3125 -1.5 C 0.394531 -1.570312 0.476562 -1.625 0.5625 -1.65625 C 0.644531 -1.695312 0.738281 -1.722656 0.84375 -1.734375 Z M 0.875 -1.5 C 0.863281 -1.507812 0.835938 -1.515625 0.796875 -1.515625 C 0.765625 -1.515625 0.738281 -1.515625 0.71875 -1.515625 C 0.6875 -1.503906 0.65625 -1.488281 0.625 -1.46875 C 0.59375 -1.457031 0.566406 -1.441406 0.546875 -1.421875 C 0.503906 -1.367188 0.472656 -1.269531 0.453125 -1.125 C 0.453125 -1.101562 0.453125 -1.082031 0.453125 -1.0625 C 0.453125 -1.050781 0.445312 -1.035156 0.4375 -1.015625 L 0.4375 -0.96875 L 0.640625 -0.96875 C 0.828125 -0.976562 0.9375 -0.988281 0.96875 -1 C 1.03125 -1.03125 1.0625 -1.070312 1.0625 -1.125 C 1.0625 -1.207031 1.046875 -1.289062 1.015625 -1.375 C 0.984375 -1.4375 0.9375 -1.476562 0.875 -1.5 Z M 0.875 -1.5 "/></g></g></g></svg>